<svg id="Capa_1" xmlns="http://www.w3.org/2000/svg" viewBox="0 0 512 512"><style>.st0{fill:#fff}</style><path class="st0" d="M256 512c141.2 0 256-114.8 256-256S397.2 0 256 0 0 114.8 0 256s114.8 256 256 256zm0-486.4C383.1 25.6 486.4 129 486.4 256S383.1 486.4 256 486.4 25.6 383.1 25.6 256 128.9 25.6 256 25.6z"/><path class="st0" d="M144.8 268.8h191.5L286.2 319c-5 5-5 13.1 0 18.1 2.5 2.5 5.7 3.8 9.1 3.8 3.3 0 6.6-1.3 9.1-3.8l71.9-71.9c5-5 5-13.1 0-18.1l-71.9-71.9c-5-5-13.1-5-18.1 0-5 5-5 13.1 0 18.1l50.1 50.1H144.8c-7.1 0-12.8 5.7-12.8 12.8 0 7 5.7 12.6 12.8 12.6z"/></svg>