<svg id="Capa_1" xmlns="http://www.w3.org/2000/svg" viewBox="0 0 512 512"><style>.st0{fill:#c3e086}</style><path class="st0" d="M366.6 137.3c-1.9-4.2-6.9-6.1-11.2-4.1-4.2 1.9-6.1 6.9-4.1 11.2 6.4 13.8 9.6 28.6 9.6 43.9 0 57.8-47 104.9-104.9 104.9-57.8 0-104.9-47-104.9-104.9 0-57.8 47-104.9 104.9-104.9 29.6 0 57.9 12.6 77.8 34.5 3.1 3.4 8.4 3.7 11.9.6 3.4-3.1 3.7-8.4.6-11.9-23-25.5-55.9-40.1-90.3-40.1-67.1 0-121.7 54.6-121.7 121.7S188.9 310 256 310s121.7-54.6 121.7-121.7c0-17.8-3.7-34.9-11.1-51z"/><path class="st0" d="M424.1 188.3c0-6.4 2.8-13.9 5.8-21.8 4.5-11.9 9.2-24.3 5.2-36.4-4.1-12.6-15.9-20.3-26.3-27.1-6.8-4.5-13.3-8.7-16.8-13.5-3.6-4.9-5.6-12.5-7.8-20.4-3.2-11.9-6.9-25.4-17.5-33.1-10.5-7.6-23.8-7-36.7-6.4-8.3.4-16.2.8-22.1-1.2-5.5-1.8-11.4-6.6-17.7-11.6C280.6 8.9 269.5 0 256 0c-13.5 0-24.6 8.9-34.3 16.8-6.2 5-12.1 9.8-17.7 11.6-5.9 1.9-13.8 1.6-22.1 1.2-12.9-.6-26.2-1.2-36.7 6.4-10.6 7.7-14.3 21.2-17.5 33.1-2.2 8-4.2 15.5-7.8 20.4-3.5 4.8-10 9-16.8 13.5-10.4 6.8-22.2 14.5-26.3 27.1-3.9 12.1.7 24.5 5.2 36.4 3 7.9 5.8 15.4 5.8 21.8S85 202.2 82 210.1c-4.5 11.9-9.2 24.3-5.2 36.4 4.1 12.6 15.9 20.3 26.3 27.1 6.8 4.5 13.3 8.7 16.8 13.5 3.6 4.9 5.6 12.5 7.8 20.4 3.2 11.9 6.9 25.4 17.5 33.1 10.5 7.6 23.8 7 36.7 6.4 8.3-.4 16.2-.8 22.1 1.2 5.5 1.8 11.4 6.6 17.7 11.6 4.7 3.8 9.7 7.8 15.2 11l-32.3 115.7-29.8-33.2c-2.2-2.4-5.6-3.4-8.7-2.4l-42.6 13 26.7-95.9c1.2-4.5-1.4-9.1-5.8-10.4-4.5-1.2-9.1 1.4-10.4 5.8L103.1 474c-.8 3 0 6.1 2.2 8.3 2.2 2.1 5.4 2.9 8.3 2l52.2-15.9 36.4 40.6c1.6 1.8 3.9 2.8 6.3 2.8.6 0 1.3-.1 1.9-.2 3-.7 5.4-3 6.2-5.9l36.1-129.5c1.1.1 2.1.2 3.2.2s2.2-.1 3.2-.2l36.1 129.5c.8 3 3.2 5.2 6.2 5.9.6.1 1.3.2 1.9.2 2.4 0 4.6-1 6.3-2.8l36.4-40.6 52.2 15.9c2.9.9 6.1.1 8.3-2 2.2-2.1 3.1-5.3 2.2-8.3l-38.2-137c7.6-7.9 10.7-19.4 13.5-29.6 2.2-8 4.2-15.5 7.8-20.4 3.5-4.8 10-9 16.8-13.5 10.4-6.8 22.2-14.5 26.3-27.1 3.9-12.1-.7-24.5-5.2-36.4-2.8-7.8-5.6-15.3-5.6-21.7zm-35.6 275.6l-42.6-13c-3.1-1-6.5 0-8.7 2.4l-29.8 33.2-32.3-115.7c5.4-3.2 10.5-7.2 15.2-11 6.2-5 12.1-9.8 17.7-11.6 5.9-1.9 13.8-1.6 22.1-1.2 8.6.4 17.5.8 25.5-1.3l32.9 118.2zm30.6-222.6c-2.3 7-10.6 12.4-19.5 18.2-7.8 5.1-15.9 10.4-21.2 17.7-5.4 7.4-8 16.8-10.4 25.9-2.8 10.1-5.4 19.7-11.2 23.9-5.7 4.2-15.5 3.7-26 3.2-9.4-.4-19.2-.9-28.1 2-8.5 2.8-15.9 8.7-23 14.5-8.3 6.7-16.1 13-23.7 13s-15.4-6.3-23.7-13c-7.2-5.8-14.6-11.8-23-14.5-5.6-1.8-11.5-2.3-17.5-2.3-3.5 0-7 .2-10.5.3-10.4.5-20.2 1-26-3.2-5.8-4.2-8.4-13.8-11.2-23.9-2.5-9.1-5-18.5-10.4-25.9-5.3-7.3-13.4-12.6-21.2-17.7-8.9-5.8-17.2-11.2-19.5-18.2-2.1-6.5 1.3-15.6 5-25.2 3.4-9 6.9-18.2 6.9-27.8s-3.5-18.8-6.9-27.8c-3.6-9.6-7.1-18.7-5-25.2 2.3-7 10.6-12.4 19.5-18.2 7.8-5.1 15.9-10.4 21.2-17.7 5.4-7.4 8-16.8 10.4-25.9 2.8-10.1 5.4-19.7 11.2-23.9 5.7-4.2 15.5-3.7 26-3.2 9.4.4 19.2.9 28.1-2 8.5-2.8 15.9-8.7 23-14.5 8.3-6.7 16.1-13 23.7-13 7.6 0 15.4 6.3 23.7 13 7.2 5.8 14.6 11.8 23 14.5 8.9 2.9 18.6 2.4 28.1 2 10.4-.5 20.2-1 26 3.2 5.8 4.2 8.4 13.8 11.2 23.9 2.5 9.1 5 18.5 10.4 25.9 5.3 7.3 13.4 12.6 21.2 17.7 8.9 5.8 17.2 11.2 19.5 18.2 2.1 6.5-1.3 15.6-5 25.2-3.4 9-6.9 18.2-6.9 27.8 0 9.5 3.5 18.8 6.9 27.8 3.6 9.6 7 18.7 4.9 25.2z"/><path class="st0" d="M288.5 135.9h-65c-4.6 0-8.4 3.8-8.4 8.4s3.8 8.4 8.4 8.4h65c4.6 0 8.4-3.8 8.4-8.4s-3.7-8.4-8.4-8.4zM288.5 223.8h-65c-4.6 0-8.4 3.8-8.4 8.4s3.8 8.4 8.4 8.4h65c4.6 0 8.4-3.8 8.4-8.4s-3.7-8.4-8.4-8.4zM311.8 179.9h-25.4c-4.6 0-8.4 3.8-8.4 8.4s3.8 8.4 8.4 8.4h25.4c4.6 0 8.4-3.8 8.4-8.4 0-4.7-3.7-8.4-8.4-8.4zM260.1 179.9h-59.9c-4.6 0-8.4 3.8-8.4 8.4s3.8 8.4 8.4 8.4h59.9c4.6 0 8.4-3.8 8.4-8.4 0-4.7-3.7-8.4-8.4-8.4z"/></svg>