<svg id="Capa_1" xmlns="http://www.w3.org/2000/svg" viewBox="0 0 512 512"><style>.st0{fill:#b8e281}</style><path class="st0" d="M64.2 132.8c-37 2.9-67.4 35.4-64 73.5 3 32.7 31.9 59.5 65.7 56 28.4-3 51.7-28.4 47.9-58-3.1-24-25-43.8-50.4-39.8-19.7 3.1-36 21.7-31.5 42.9 1.6 7.7 6 14.3 12.3 18.8 6.3 4.5 15 6.7 23.5 4 5.6-1.8 10-5.3 13.1-10.5 3-5.1 4-13.1 0-19.5-3.3-5.1-6.2-6.1-10.9-6.9-2.3-.4-5.6-.5-9.1 1.7-3.5 2.3-5.3 7-5.3 10.3 0 2.5.9 5 2.7 6.8-.9-.3-1.9-.6-2.8-1.3-2.3-1.6-4.3-4.6-4.8-7.4-2-9.5 6.1-18.7 15.9-20.3 13.9-2.2 26.8 9.4 28.6 23.4 2.3 18.3-12.8 34.8-31.1 36.8-22.7 2.4-42.8-16.2-44.8-38.8-2.5-27 19.7-50.7 46.6-52.9h380.5c26.9 2.1 49.1 25.8 46.6 52.9-2.1 22.6-22.1 41.2-44.8 38.8-18.3-1.9-33.4-18.4-31.1-36.8 1.8-14 14.7-25.6 28.6-23.4 9.8 1.6 17.9 10.8 15.9 20.3-.6 2.8-2.6 5.8-4.8 7.4-1 .7-1.9 1.1-2.8 1.3 1.8-1.8 2.8-4.2 2.7-6.8 0-3.3-1.8-8-5.3-10.3-3.5-2.3-6.8-2.1-9.1-1.7-4.7.8-7.7 1.8-10.9 6.9-4 6.3-3.1 14.3 0 19.5 3 5.1 7.5 8.7 13.1 10.5 8.5 2.7 17.3.5 23.5-4s10.7-11.2 12.3-18.8c4.5-21.2-11.8-39.8-31.5-42.9-25.4-4-47.3 15.7-50.4 39.8-3.8 29.6 19.5 55 47.9 58 33.8 3.6 62.7-23.2 65.7-56 3.5-38.1-26.9-70.5-64-73.5-.8-.1-1.5-.1-2.2-.1H66.5c-.8 0-1.6.1-2.3.1zM28.6 38c-5.2 0-9.5 4.2-9.5 9.5v19c0 2.5 1 4.9 2.8 6.7l37.9 37.9c1.8 1.8 4.2 2.8 6.7 2.8h379.1c2.5 0 4.9-1 6.7-2.8l37.9-37.9c1.8-1.8 2.8-4.2 2.8-6.7v-19c0-5.2-4.2-9.5-9.5-9.5H28.6zM38 57h436v5.5l-32.4 32.4H70.4L38 62.5V57zm104.3 132.7c-5.2 0-9.5 4.2-9.5 9.5v265.4c0 5.2 4.2 9.5 9.5 9.5 1.9 0 3.7-.6 5.3-1.6l53.9-35.9c2.6-1.7 4.2-4.6 4.2-7.7l3-172.6v-.2c0-6.2 19.1-6.4 19-.2V407.7c0 5.2 4.2 9.5 9.5 9.5 1.9 0 3.7-.6 5.3-1.6l56.9-37.9c2.6-1.8 4.2-4.7 4.2-7.9V256c0-6.3 19-6.3 19 0v94.8c0 5.2 4.2 9.5 9.5 9.5 1.5 0 2.9-.3 4.2-1l37.9-19c3.2-1.6 5.2-4.9 5.2-8.5V199.1c0-5.2-4.2-9.5-9.5-9.5l-227.6.1zm9.5 18.9h208.5V326l-19 9.5V256c0-31.6-56.9-31.6-56.9 0v108.7L246.5 390V256v.2c.6-31.7-56.9-31.9-56.9-.2v-.2l-2.9 167.6-35 23.4.1-238.2z"/></svg>