<svg id="Слой_1" xmlns="http://www.w3.org/2000/svg" viewBox="0 0 20.5 20.5"><style>.st0{fill:#313b0f}</style><g id="instagram_7_"><path class="st0" d="M10.3 1.8c2.7 0 3.1 0 4.1.1 1 0 1.5.2 1.9.4.5.2.8.4 1.2.8.4.4.6.7.8 1.2.1.4.3.9.4 1.9 0 1.1.1 1.4.1 4.1 0 2.7 0 3.1-.1 4.1 0 1-.2 1.5-.4 1.9-.2.5-.4.8-.8 1.2-.4.4-.7.6-1.2.8-.4.1-.9.3-1.9.4-1.1 0-1.4.1-4.1.1s-3.1 0-4.1-.1c-1 0-1.5-.2-1.9-.4-.5-.2-.8-.4-1.2-.8-.4-.4-.6-.7-.8-1.2-.1-.4-.3-.9-.4-1.9 0-1.1-.1-1.4-.1-4.1 0-2.7 0-3.1.1-4.1 0-1 .2-1.5.4-1.9.1-.6.4-.9.7-1.3.4-.4.7-.6 1.2-.8.4-.1.9-.2 1.9-.3 1.1 0 1.4-.1 4.2-.1m0-1.8C7.5 0 7.1 0 6 .1 4.9.1 4.2.3 3.5.6c-.6.2-1.2.6-1.8 1.1S.8 2.9.5 3.5C.3 4.2.1 4.9.1 6 0 7.1 0 7.5 0 10.3s0 3.1.1 4.2c0 1.1.2 1.8.5 2.5s.6 1.2 1.2 1.8 1.1.9 1.8 1.2c.7.3 1.4.4 2.5.5 1.1 0 1.4.1 4.2.1s3.1 0 4.2-.1c1.1 0 1.8-.2 2.5-.5s1.2-.6 1.8-1.2.9-1.1 1.2-1.8c.3-.7.4-1.4.5-2.5 0-1.1.1-1.4.1-4.2s0-3.1-.1-4.2c0-1.1-.2-1.8-.5-2.5s-.6-1.2-1.2-1.8S17.6.8 17 .5c-.7-.3-1.4-.4-2.5-.5h-4.2z"/><path class="st0" d="M10.3 5C7.3 5 5 7.3 5 10.3s2.4 5.3 5.3 5.3 5.3-2.4 5.3-5.3S13.2 5 10.3 5zm0 8.7c-1.9 0-3.4-1.5-3.4-3.4s1.5-3.4 3.4-3.4 3.4 1.5 3.4 3.4-1.6 3.4-3.4 3.4z"/><circle class="st0" cx="15.7" cy="4.8" r="1.2"/></g></svg>