<svg id="Слой_1" xmlns="http://www.w3.org/2000/svg" viewBox="0 0 240.4 29.5"><style>.st0{fill:#fff}.st1{fill:none;stroke:#fff;stroke-linecap:round;stroke-miterlimit:10}</style><path class="st0" d="M21 10.2c1.2 1.2 1.7 2.5 1.7 4.1 0 1.7-.6 3-1.7 4.2-1.2 1.2-2.6 1.7-4.2 1.7s-3-.6-4.1-1.7C11.5 17.3 11 16 11 14.3c0-1.6.6-3 1.7-4.1 1.2-1.2 2.5-1.7 4.1-1.7 1.7-.1 3.1.5 4.2 1.7z"/><path class="st0" d="M16.4.3C15.7.2 15 .1 14.2.1 6.5.1.2 6.2.1 14c-.1.1-.1.2-.1.3 0 6.5 4.4 12 10.3 13.7 1.3.3 2.5.5 3.9.5 7.1 0 13.1-5.2 14.1-12.1.1-.7.2-1.4.2-2.1 0-7.1-5.3-13-12.1-14zM22.5 20c-1.6 1.5-3.5 2.3-5.7 2.3s-4.1-.8-5.7-2.4c-1.3-1.3-2.1-2.8-2.3-4.6h-1v5.9c0 .2 0 .3-.1.4 0 .2-.1.4-.2.4l-.3.3c-.2.1-.3.1-.4.1-.2 0-.3 0-.4-.1-.2-.1-.3-.2-.3-.3H6l-.1-.1c-.1-.1-.1-.1-.1-.2-.1-.1-.1-.3-.1-.4V7.4c0-.2 0-.3.1-.4.1-.2.2-.3.3-.4.1-.1.2-.2.3-.2.1-.1.3-.1.4-.1.2 0 .3.1.4.1.1.1.3.1.3.2.1.1.2.2.3.4.1.1.1.3.1.4v5.9h1c.2-1.7 1-3.3 2.3-4.6 1.6-1.6 3.5-2.4 5.7-2.4s4.1.8 5.7 2.4c.2.3.4.5.6.7.2.2.3.4.5.6.3.4.5.8.7 1.3.4.9.6 1.9.6 3-.1 2.3-.9 4.2-2.5 5.7zM115.6 6.6c-.2-.2-.5-.3-.7-.3-.3 0-.6.1-.8.3-.2.2-.3.5-.3.8v5.9h-7.1V7.4c0-.3-.1-.6-.3-.8-.2-.2-.5-.3-.7-.3-.3 0-.6.1-.8.3-.2.2-.3.5-.3.8v13.9c0 .3.1.5.3.7.2.2.5.3.8.3.3 0 .5-.1.7-.3.2-.2.3-.4.3-.7v-5.9h7.1v5.9c0 .3.1.5.3.7.2.2.5.3.8.3.3 0 .5-.1.7-.3.2-.2.3-.4.3-.7V7.4c0-.3-.1-.6-.3-.8zM99.5 1.8c-.2-.2-.5-.3-.8-.3-.3 0-.5.1-.7.3-.2.2-.3.3-.3.5-.1.2-.2.3-.4.5s-.5.2-.8.2c-.4 0-.7-.1-.9-.2-.3-.2-.4-.3-.4-.5s-.1-.4-.3-.5c-.2-.2-.4-.3-.7-.3-.3 0-.6.1-.8.3-.2.2-.3.4-.3.7 0 .4.1.7.3 1 .2.3.4.6.7.8.3.2.6.4 1 .5.4.2.8.2 1.3.2.4 0 .9-.1 1.3-.2s.8-.3 1-.5c.3-.3.6-.5.7-.8.2-.3.3-.6.3-1 .1-.2 0-.5-.2-.7zm3.4 5.2c-.1-.2-.2-.3-.3-.4-.1-.1-.2-.2-.3-.2-.1-.1-.3-.1-.4-.1-.3 0-.6.2-.8.4l-8.9 11.5V7.4c0-.3-.1-.6-.3-.8-.2-.2-.5-.3-.8-.3-.3 0-.5.1-.7.3-.3.2-.4.5-.4.8v13.9c0 .2.1.3.1.4.1.1.1.3.2.3l.3.3c.2.1.3.1.4.1.3 0 .6-.1.8-.4l8.9-11.5v10.8c0 .3.1.5.3.7.2.2.5.3.8.3.3 0 .5-.1.7-.3.2-.2.3-.4.3-.7V7.4c.1-.2.1-.3.1-.4zM88.4 20.9L83.1 7c-.2-.5-.6-.7-1-.7-.5 0-.8.3-1 .7l-5.4 13.8c-.1.2-.1.3-.1.5 0 .3.1.5.3.7.2.2.4.3.7.3s.5-.1.7-.3l.3-.3 1.8-4.8h5.1l1.9 4.8c.1.1.1.2.2.3.2.2.5.3.7.3.3 0 .6-.1.8-.3.2-.2.3-.4.3-.7.2-.2.1-.3 0-.4zm-8.1-6.1l1.7-4.5 1.8 4.5h-3.5zM74 20.9L68.6 7.1c-.2-.5-.5-.8-1-.8s-.8.3-1 .8l-5.4 13.8c-.1.2-.1.3-.1.4 0 .2 0 .3.1.4.1.1.2.3.2.3.1.1.2.2.4.3.1.1.3.1.4.1.4 0 .8-.2 1-.6l4.4-11.4L72 21.7c.2.4.5.6 1 .6.2 0 .3 0 .4-.1.2-.1.3-.2.4-.3.1-.1.2-.2.2-.3.1-.1.1-.3.1-.4 0-.1 0-.2-.1-.3zM59.4 6.6c-.2-.2-.4-.3-.7-.3-.3 0-.6.1-.7.3-.2.2-.3.5-.3.8v5.9h-7.2V7.4c0-.3-.1-.6-.3-.8-.2-.2-.4-.3-.7-.3-.3 0-.5.1-.7.3-.2.2-.3.5-.3.8v13.9c0 .3.1.5.3.7.2.2.4.3.7.3.3 0 .5-.1.7-.3.2-.2.3-.4.3-.7v-5.9h7.2v5.9c0 .3.1.5.3.7.2.2.4.3.7.3.3 0 .5-.1.7-.3.2-.2.3-.4.3-.7V7.4c0-.3-.1-.6-.3-.8zm-13.2 4.7c-.4-.9-1-1.8-1.8-2.6-1.6-1.6-3.5-2.4-5.7-2.4s-4.1.8-5.7 2.4c-1.6 1.6-2.4 3.5-2.4 5.7 0 2.3.8 4.1 2.4 5.7 1.6 1.5 3.5 2.3 5.7 2.3s4.1-.8 5.7-2.3c1.6-1.6 2.4-3.5 2.4-5.7-.1-1.2-.3-2.2-.6-3.1zm-3.3 7.2c-1.2 1.2-2.6 1.7-4.2 1.7s-3-.6-4.1-1.7c-1.2-1.2-1.7-2.6-1.7-4.2 0-.8.1-1.6.4-2.3.3-.7.7-1.3 1.3-1.9.6-.6 1.2-1 1.9-1.3.7-.3 1.4-.4 2.3-.4 1.6 0 3 .6 4.2 1.7 1.1 1.2 1.7 2.5 1.7 4.1s-.7 3.2-1.8 4.3z"/><path class="st1" d="M126.3.5V29"/><g><path class="st0" d="M142.2 14.6c0 1.6-.4 2.9-1.2 3.9-.8 1-2 1.4-3.4 1.4s-2.6-.5-3.4-1.4c-.8-1-1.2-2.3-1.2-3.9 0-1.7.4-3 1.2-3.9.8-.9 2-1.4 3.4-1.4s2.6.5 3.4 1.4c.7 1 1.2 2.3 1.2 3.9zm-8.5 0c0 1.5.3 2.6 1 3.4.7.8 1.6 1.2 2.9 1.2 1.2 0 2.2-.4 2.9-1.2.7-.8 1-2 1-3.5s-.3-2.6-1-3.4c-.7-.8-1.6-1.2-2.9-1.2-1.2 0-2.2.4-2.9 1.2-.7.9-1 2.1-1 3.5zM145.1 19.8h-.7v-7.7h6.2v7.7h-.7v-7h-4.7v7zM156.2 20c-1.1 0-2-.3-2.6-1-.6-.7-.9-1.7-.9-2.9s.3-2.2.9-3c.6-.7 1.4-1.1 2.4-1.1.9 0 1.6.3 2.2 1 .5.6.8 1.5.8 2.6v.6h-5.6c0 1.1.3 1.9.7 2.4.5.6 1.2.8 2.1.8.4 0 .8 0 1.2-.1.3-.1.8-.2 1.3-.4v.6c-.4.2-.8.3-1.2.4-.4.1-.8.1-1.3.1zm-.2-7.4c-.7 0-1.3.2-1.8.7-.4.5-.7 1.2-.8 2.1h4.8c0-.9-.2-1.6-.6-2.1-.4-.4-.9-.7-1.6-.7zM164.4 20c-1.2 0-2.1-.4-2.6-1.3v4.6h-.7V12.1h.6l.1 1.1c.5-.8 1.4-1.2 2.5-1.2 1 0 1.8.3 2.4 1 .5.7.8 1.7.8 3s-.3 2.3-.9 2.9c-.4.7-1.2 1.1-2.2 1.1zm0-.6c.8 0 1.4-.3 1.8-.9.4-.6.6-1.4.6-2.5 0-2.3-.8-3.4-2.5-3.4-.9 0-1.6.2-2 .7s-.6 1.3-.6 2.4v.3c0 1.2.2 2.1.6 2.6.5.5 1.2.8 2.1.8zM174.4 19.8l-.2-1.2h-.1c-.4.5-.8.8-1.2 1.1-.4.2-.9.3-1.5.3-.8 0-1.3-.2-1.8-.6s-.6-.9-.6-1.6c0-.8.3-1.3.9-1.8.6-.4 1.5-.6 2.7-.7h1.5v-.5c0-.7-.1-1.3-.4-1.7-.3-.4-.8-.6-1.4-.6-.7 0-1.5.2-2.2.6l-.3-.6c.8-.4 1.7-.6 2.5-.6s1.5.2 1.9.7c.4.4.6 1.1.6 2.1v5.1h-.4zm-2.8-.5c.8 0 1.5-.2 1.9-.7.5-.5.7-1.1.7-2v-.8l-1.3.1c-1.1.1-1.9.2-2.3.5-.5.3-.7.7-.7 1.3 0 .5.1.9.4 1.1.3.4.7.5 1.3.5zM182.3 12.7h-2.6v7.1h-.7v-7.1h-2.6v-.6h5.9v.6zM190.3 16c0 1.3-.3 2.2-.9 2.9s-1.5 1.1-2.5 1.1c-.7 0-1.3-.2-1.8-.5s-.9-.8-1.2-1.4c-.3-.6-.4-1.3-.4-2.1 0-1.3.3-2.2.9-2.9.6-.7 1.4-1.1 2.5-1.1s1.9.4 2.5 1.1c.6.7.9 1.6.9 2.9zm-6.1 0c0 1.1.2 1.9.7 2.5.5.6 1.1.9 2 .9s1.5-.3 2-.9c.5-.6.7-1.4.7-2.5s-.2-1.9-.7-2.5c-.5-.6-1.1-.9-2-.9s-1.5.3-2 .9c-.5.6-.7 1.4-.7 2.5zM195.7 20c-1.2 0-2.1-.4-2.6-1.3v4.6h-.7V12.1h.6l.1 1.1c.5-.8 1.4-1.2 2.5-1.2 1 0 1.8.3 2.4 1 .5.7.8 1.7.8 3s-.3 2.3-.9 2.9c-.4.7-1.2 1.1-2.2 1.1zm0-.6c.8 0 1.4-.3 1.8-.9.4-.6.6-1.4.6-2.5 0-2.3-.8-3.4-2.5-3.4-.9 0-1.6.2-2 .7s-.6 1.3-.6 2.4v.3c0 1.2.2 2.1.6 2.6.5.5 1.2.8 2.1.8zM207.9 20c-1.1 0-2-.3-2.6-1-.6-.7-.9-1.7-.9-2.9 0-1.3.3-2.3 1-3 .6-.7 1.5-1.1 2.7-1.1.7 0 1.3.1 1.9.3l-.2.6c-.7-.2-1.2-.3-1.7-.3-.9 0-1.7.3-2.2.9-.5.6-.7 1.4-.7 2.5 0 1 .2 1.9.7 2.4.5.6 1.2.9 2 .9.7 0 1.4-.1 2-.4v.7c-.5.3-1.2.4-2 .4zM217.7 14c0 .5-.1.9-.4 1.1-.2.3-.6.5-1.2.6.6.1 1.1.3 1.3.5.3.3.4.7.4 1.2 0 .7-.2 1.3-.7 1.7-.5.4-1.2.6-2.1.6h-3.3V12h3.3c.9 0 1.5.2 2 .5.5.4.7.9.7 1.5zm-.8 0c0-.4-.2-.8-.5-1-.3-.2-.8-.3-1.4-.3h-2.5v2.6h2.5c.7 0 1.2-.1 1.5-.3.3-.1.4-.5.4-1zm.3 3.5c0-.9-.7-1.4-2.2-1.4h-2.5v3.1h2.6c1.4 0 2.1-.6 2.1-1.7zM219.9 19.8h-.9l2.3-3.3c-.7-.1-1.2-.4-1.5-.7-.3-.4-.5-.8-.5-1.4 0-.7.2-1.3.7-1.7.5-.4 1.1-.6 1.9-.6h3.2v7.7h-.7v-3.2H222l-2.1 3.2zm.2-5.4c0 .5.2.9.5 1.2.3.3.9.4 1.6.4h2.3v-3.1H222c-.6 0-1 .1-1.4.4-.4.2-.5.6-.5 1.1zM229.1 15.5c1.4 0 2.1-.5 2.1-1.4 0-.5-.2-.8-.5-1.1-.3-.2-.8-.4-1.4-.4-.4 0-.7 0-1.1.1-.3.1-.7.2-1.1.4l-.3-.6c.8-.4 1.6-.6 2.4-.6.8 0 1.5.2 1.9.5.4.4.7.8.7 1.5 0 .9-.5 1.5-1.4 1.7.6.1 1 .4 1.2.7.3.3.4.7.4 1.3 0 .7-.3 1.3-.8 1.7-.5.4-1.2.6-2.2.6-.5 0-1 0-1.4-.1-.4-.1-.8-.2-1-.4v-.7c.5.2.9.4 1.3.5.4.1.7.1 1.1.1.7 0 1.2-.1 1.6-.4.4-.3.6-.7.6-1.3 0-.5-.2-.9-.6-1.2-.4-.3-.9-.4-1.7-.4h-1.1v-.6h1.3zM234.9 12.1v7.1l4.6-7h.9v7.7h-.7v-7l-4.6 7h-.9v-7.7h.7z"/></g></svg>