<svg id="Слой_1" xmlns="http://www.w3.org/2000/svg" viewBox="0 0 227.2 56"><style>.st0{fill:#fff}</style><path class="st0" d="M44.6 28.3c0 3.3-1.1 6-3.4 8.2-2.3 2.3-5 3.4-8.2 3.4-3.2 0-5.9-1.1-8.1-3.4-2.3-2.3-3.4-4.9-3.4-8.2 0-3.2 1.1-5.9 3.4-8.1 2.3-2.3 4.9-3.4 8.1-3.4 3.2 0 6 1.1 8.2 3.4 2.2 2.2 3.4 4.9 3.4 8.1z"/><path class="st0" d="M32.1.7C30.8.5 29.3.3 27.9.3 12.8.3.4 12.4.1 27.6c-.1.2-.1.4-.1.6C0 41 8.6 51.7 20.3 55c2.5.6 4.9 1 7.6 1 14 0 25.6-10.3 27.6-23.8.2-1.3.3-2.7.3-4.1C55.8 14.3 45.5 2.7 32.1.7zm12 38.8C41 42.5 37.3 44 33 44s-8-1.5-11.1-4.6c-2.6-2.6-4.1-5.6-4.5-9h-2V42c0 .3 0 .6-.1.8-.1.2-.3.5-.5.6-.1.2-.4.4-.6.5-.4.1-.6.1-.9.1s-.6 0-.8-.1c-.3-.1-.5-.3-.6-.5-.1 0-.1-.1-.2-.1l-.1-.2c-.1-.1-.1-.2-.2-.3-.1-.2-.1-.5-.1-.8V14.7c0-.3 0-.6.1-.8.1-.3.3-.5.5-.7.1-.2.3-.3.6-.4.2-.1.5-.2.8-.2s.5.1.8.2c.2.1.5.2.6.4.2.2.4.4.5.7.1.2.1.5.1.8v11.5h2c.4-3.4 2-6.5 4.5-9 3.1-3.1 6.8-4.6 11.1-4.6s8 1.5 11.1 4.6c.4.5.8.9 1.1 1.4.4.3.6.7.9 1.1.5.8 1 1.6 1.3 2.6.8 1.8 1.1 3.8 1.1 6 .3 4.4-1.2 8.1-4.3 11.2zM90.5 22.3c-.8-1.9-2-3.6-3.5-5.1-3.1-3.1-6.8-4.6-11.1-4.6s-8 1.5-11.1 4.6c-3.1 3.1-4.6 6.8-4.6 11.1 0 4.4 1.5 8.1 4.6 11.2 3.1 3 6.8 4.5 11.1 4.5s8-1.5 11.1-4.5c3.1-3.1 4.6-6.8 4.6-11.2 0-2.2-.4-4.1-1.1-6zm-6.4 14.2c-2.3 2.3-5.1 3.4-8.2 3.4s-5.9-1.1-8.1-3.4c-2.3-2.3-3.4-5-3.4-8.2 0-1.5.2-3.1.8-4.4.5-1.3 1.3-2.6 2.6-3.7 1.1-1.1 2.4-2 3.7-2.6 1.3-.5 2.8-.8 4.4-.8 3.2 0 6 1.1 8.2 3.4 2.2 2.3 3.3 4.9 3.3 8.1s-1.2 6-3.3 8.2zm32.3-23.3c-.4-.4-.8-.6-1.4-.6-.6 0-1.1.2-1.4.6-.4.4-.6.9-.6 1.5v11.5H98.8V14.7c0-.6-.2-1.1-.6-1.5-.4-.4-.8-.6-1.4-.6-.6 0-1 .2-1.4.6-.4.4-.6.9-.6 1.5V42c0 .6.2 1 .6 1.4.4.4.8.6 1.4.6.6 0 1-.2 1.4-.6s.6-.8.6-1.4V30.5h14.1V42c0 .6.2 1 .6 1.4.3.4.8.6 1.4.6.6 0 1-.2 1.4-.6.4-.4.6-.8.6-1.4V14.7c.1-.6-.1-1.1-.5-1.5zm28.7 28l-10.6-27.1c-.4-1-1-1.5-2-1.5-.9 0-1.5.5-2 1.5L120 41.2c-.1.3-.1.5-.1.8s0 .6.1.8c.1.2.3.5.4.6.2.2.4.4.7.5.2.1.5.1.8.1.8 0 1.5-.4 2-1.2l8.6-22.3 8.7 22.3c.4.8 1 1.2 1.9 1.2.3 0 .6 0 .8-.1.3-.1.5-.3.7-.5.2-.1.3-.4.4-.6.1-.2.2-.5.2-.8s0-.6-.1-.8zm28.3 0L162.9 14c-.4-.9-1.1-1.4-2-1.4-.9 0-1.5.5-2 1.4l-10.5 27c-.1.3-.2.6-.2.9 0 .6.2 1 .6 1.4.4.4.8.6 1.5.6.6 0 1-.2 1.4-.6.2-.2.4-.4.5-.6l3.6-9.4h10.1l3.7 9.4c.1.2.2.4.4.6.4.4.9.6 1.4.6.6 0 1.1-.2 1.5-.6.4-.4.6-.8.6-1.4.1-.2 0-.5-.1-.7zm-15.9-11.9l3.4-8.9 3.5 8.9h-6.9zm44.2-15.4c-.1-.3-.3-.5-.5-.7-.2-.2-.4-.3-.6-.4-.2-.1-.5-.2-.8-.2-.6 0-1.1.3-1.7.8l-17.5 22.5V14.7c0-.6-.2-1.1-.6-1.5-.4-.4-.9-.6-1.5-.6-.5 0-1 .2-1.4.6-.4.4-.6.9-.6 1.5V42c0 .3.1.6.2.8.1.2.2.5.4.6.2.2.4.4.6.5.3.1.6.1.8.1.6 0 1.1-.2 1.6-.7l17.5-22.5V42c0 .6.2 1 .6 1.4.4.4.9.6 1.5.6.5 0 1-.2 1.4-.6.4-.4.6-.8.6-1.4V14.7c.1-.3.1-.6 0-.8zm-6.6-10.1c-.4-.4-.9-.6-1.5-.6-.5 0-1 .2-1.4.6-.3.3-.5.6-.5 1-.1.3-.3.6-.7.9-.5.3-1.1.4-1.8.4s-1.3-.1-1.8-.4c-.5-.3-.7-.6-.8-.9 0-.4-.2-.7-.5-1-.4-.4-.8-.6-1.4-.6s-1.1.2-1.5.6c-.3.4-.5.8-.5 1.4 0 .7.2 1.3.5 2 .3.6.8 1.1 1.4 1.6.5.4 1.2.8 2.1 1 .7.3 1.6.4 2.6.4.8 0 1.8-.1 2.5-.4.8-.2 1.5-.6 2.1-1 .6-.5 1.1-1 1.4-1.6.3-.6.5-1.2.5-2-.2-.6-.4-1-.7-1.4zm31.5 9.4c-.4-.4-.9-.6-1.4-.6-.6 0-1.1.2-1.5.6-.4.4-.6.9-.6 1.5v11.5h-14V14.7c0-.6-.2-1.1-.6-1.5-.4-.4-.9-.6-1.5-.6s-1.1.2-1.5.6c-.4.4-.6.9-.6 1.5V42c0 .6.2 1 .6 1.4.4.4.9.6 1.5.6.5 0 1-.2 1.5-.6.4-.4.6-.8.6-1.4V30.5h14V42c0 .6.2 1 .6 1.4.4.4.9.6 1.5.6.5 0 1-.2 1.4-.6.4-.4.6-.8.6-1.4V14.7c0-.6-.2-1.1-.6-1.5z"/></svg>