<svg id="Capa_1" xmlns="http://www.w3.org/2000/svg" viewBox="0 0 512 512" width="231" height="227"><style>.st0{fill:#fff}</style><path class="st0" d="M256 7.7c-38.8 0-70.5 31.7-70.5 70.6s31.6 70.6 70.5 70.6 70.5-31.7 70.5-70.6S294.9 7.7 256 7.7zm0 121.6c-28.1 0-50.9-22.9-50.9-51s22.8-51 50.9-51 50.9 22.9 50.9 51-22.8 51-50.9 51zM471.3 328.9c-16.3-9.4-35.3-11.9-53.5-7.1-18.2 4.9-33.4 16.6-42.8 32.9-19.4 33.7-7.9 76.9 25.8 96.4 11.1 6.4 23.2 9.4 35.1 9.4 24.4 0 48.1-12.7 61.1-35.3 19.5-33.6 7.9-76.8-25.7-96.3zm8.8 86.6c-14 24.3-45.2 32.7-69.5 18.7-24.3-14.1-32.6-45.3-18.6-69.6 6.8-11.8 17.8-20.2 30.9-23.7 4.4-1.2 8.8-1.8 13.2-1.8 8.8 0 17.5 2.3 25.4 6.9 24.3 13.9 32.7 45.2 18.6 69.5zM48.6 275.7c-5.4 0-9.8 4.4-9.8 9.8v.5c0 5.4 4.4 9.8 9.8 9.8s9.8-4.4 9.8-9.8v-.5c0-5.4-4.4-9.8-9.8-9.8zM177.1 93.6c-2.3-4.9-8.1-7-13-4.7C99 119.3 53.2 179.8 41.7 250.6c-.9 5.3 2.7 10.4 8.1 11.3.5.1 1.1.1 1.6.1 4.7 0 8.9-3.4 9.6-8.2 10.5-64.4 52.2-119.4 111.4-147.2 4.9-2.3 7-8.1 4.7-13zM391.3 116c-4.2-3.4-10.4-2.7-13.8 1.5-3.4 4.2-2.7 10.4 1.5 13.8 47.3 37.8 74.4 94.2 74.4 154.7 0 5.4 4.4 9.8 9.8 9.8s9.8-4.4 9.8-9.8c0-66.5-29.8-128.5-81.7-170zM372.3 459c-2.8-4.6-8.8-6.1-13.5-3.2-30.9 18.9-66.5 28.9-102.9 28.9-35.9 0-71-9.7-101.6-28.1-4.6-2.8-10.6-1.3-13.4 3.4-2.8 4.6-1.3 10.7 3.4 13.5 33.6 20.2 72.2 30.9 111.6 30.9 40 0 79.1-11 113.1-31.8 4.6-3 6.1-9 3.3-13.6zM137 354.5c-9.4-16.3-24.6-28-42.8-32.9-18.2-4.9-37.2-2.4-53.5 7.1-16.3 9.4-28 24.6-32.8 42.9-4.9 18.2-2.4 37.2 7 53.6 13 22.6 36.8 35.3 61.1 35.3 11.9 0 24-3 35.1-9.4 33.7-19.6 45.3-62.9 25.9-96.6zm-35.6 79.4c-24.3 14.1-55.5 5.7-69.5-18.7-6.8-11.8-8.6-25.5-5.1-38.7 3.5-13.2 11.9-24.1 23.7-30.9 7.8-4.5 16.5-6.8 25.4-6.8 4.4 0 8.9.6 13.2 1.8 13.1 3.5 24.1 12 30.9 23.7 14.1 24.3 5.7 55.6-18.6 69.6z"/><ellipse class="st0" cx="354.5" cy="103.2" rx="9.8" ry="9.8"/><path class="st0" d="M341.8 330.7l-32-32.1c-5.2-5.2-12-8-19.3-8-7.3 0-14.1 2.8-19.3 8l-2.1 2.1c-1 1-2.1 1.1-2.6 1.1s-1.7-.1-2.6-1.1l-22.9-23c-1-1-1.1-2.1-1.1-2.6 0-.6.1-1.7 1.1-2.6l2.1-2.1c10.6-10.7 10.6-28 0-38.7l-32-32.1c-10.6-10.7-28-10.7-38.6 0l-7.7 7.7c-24.6 24.7-24.6 64.9 0 89.5l80.1 80.3c11.9 12 27.8 18.5 44.7 18.5s32.7-6.6 44.7-18.5l7.7-7.7c10.5-10.7 10.5-28-.2-38.7zM328 355.5l-7.7 7.7c-8.2 8.3-19.2 12.8-30.8 12.8s-22.6-4.5-30.8-12.8l-80.1-80.3c-17-17-17-44.8 0-61.8l7.7-7.7c1.5-1.5 3.5-2.3 5.5-2.3s4 .8 5.5 2.3l32 32.1c3 3 3 7.9 0 10.9l-2.1 2.1c-9.1 9.1-9.1 23.9 0 33l22.9 23c4.4 4.4 10.3 6.8 16.5 6.8 6.2 0 12.1-2.4 16.5-6.8l2.1-2.1c3-3 7.9-3 10.9 0l32 32.1c2.9 3.1 2.9 8-.1 11zM274.1 185c-5.4 0-9.8 4.4-9.8 9.8s4.4 9.8 9.8 9.8c34.4 0 62.4 28.1 62.4 62.5 0 5.4 4.4 9.8 9.8 9.8s9.8-4.4 9.8-9.8c0-45.2-36.8-82.1-82-82.1z"/><path class="st0" d="M274.1 226.3c-5.4 0-9.8 4.4-9.8 9.8s4.4 9.8 9.8 9.8c11.7 0 21.2 9.5 21.2 21.2 0 5.4 4.4 9.8 9.8 9.8s9.8-4.4 9.8-9.8c0-22.5-18.3-40.8-40.8-40.8z"/></svg>