<svg id="Capa_1" xmlns="http://www.w3.org/2000/svg" viewBox="0 0 512 512" width="229" height="229"><style>.st0{fill:#fff}</style><circle class="st0" cx="301.7" cy="78.7" r="8.2"/><circle class="st0" cx="301.7" cy="99.1" r="8.2"/><circle class="st0" cx="301.7" cy="119.4" r="8.2"/><path class="st0" d="M374.5 71.2h-45.4c-4.1 0-7.5 3.4-7.5 7.5s3.4 7.5 7.5 7.5h45.4c4.1 0 7.5-3.4 7.5-7.5s-3.4-7.5-7.5-7.5zM374.5 91.6h-45.4c-4.1 0-7.5 3.4-7.5 7.5s3.4 7.5 7.5 7.5h45.4c4.1 0 7.5-3.4 7.5-7.5s-3.4-7.5-7.5-7.5zM374.5 112h-45.4c-4.1 0-7.5 3.4-7.5 7.5s3.4 7.5 7.5 7.5h45.4c4.1 0 7.5-3.4 7.5-7.5s-3.4-7.5-7.5-7.5z"/><circle class="st0" cx="142.7" cy="78.7" r="8.2"/><circle class="st0" cx="142.7" cy="99.1" r="8.2"/><circle class="st0" cx="142.7" cy="119.4" r="8.2"/><path class="st0" d="M215.5 71.2h-45.4c-4.1 0-7.5 3.4-7.5 7.5s3.4 7.5 7.5 7.5h45.4c4.1 0 7.5-3.4 7.5-7.5s-3.4-7.5-7.5-7.5zM215.5 91.6h-45.4c-4.1 0-7.5 3.4-7.5 7.5s3.4 7.5 7.5 7.5h45.4c4.1 0 7.5-3.4 7.5-7.5s-3.4-7.5-7.5-7.5zM215.5 112h-45.4c-4.1 0-7.5 3.4-7.5 7.5s3.4 7.5 7.5 7.5h45.4c4.1 0 7.5-3.4 7.5-7.5s-3.4-7.5-7.5-7.5z"/><path class="st0" d="M484.5 378.7c-12.6 0-23.2 8.5-26.5 20h-70.9v-51.2H409c21.8 0 39.5-17.7 39.5-39.4s-17.7-39.4-39.5-39.4V7.5c0-4.1-3.4-7.5-7.5-7.5h-130c-4.1 0-7.5 3.4-7.5 7.5v182.6c-4.4-2.4-9.1-4.3-14-5.6V7.5c0-4.1-3.4-7.5-7.5-7.5h-130c-4.1 0-7.5 3.4-7.5 7.5v152c0 4.1 3.4 7.5 7.5 7.5s7.5-3.4 7.5-7.5v-3.9h115v26.9h-.5c-30.3 0-55.5 21.9-60.7 50.7-5.7-2.5-12-3.9-18.3-3.9-14.4 0-27.2 6.7-35.5 17.2V192c0-4.1-3.4-7.5-7.5-7.5s-7.5 3.4-7.5 7.5v76.7c-.7 0-1.3-.1-2-.1-21.8 0-39.5 17.7-39.5 39.4s17.7 39.4 39.5 39.4h21.8v51.2H54c-3.3-11.5-13.9-20-26.5-20-15.2.1-27.5 12.5-27.5 27.6s12.3 27.5 27.5 27.5c12.6 0 23.2-8.5 26.5-20h78.4c4.1 0 7.5-3.4 7.5-7.5v-58.7H172v4.3c0 4.1 3.4 7.5 7.5 7.5s7.5-3.4 7.5-7.5v-4.3h61.5v71c-11.5 3.3-20 13.9-20 26.5 0 15.2 12.3 27.5 27.5 27.5s27.5-12.3 27.5-27.5c0-12.6-8.5-23.2-20-26.5v-71H325V458c-11.5 3.3-20 13.9-20 26.5 0 15.2 12.3 27.5 27.5 27.5s27.5-12.3 27.5-27.5c0-12.6-8.5-23.2-20-26.5V347.5h32.2v58.7c0 4.1 3.4 7.5 7.5 7.5H458c3.3 11.5 13.9 20 26.5 20 15.2 0 27.5-12.3 27.5-27.5 0-15.1-12.3-27.5-27.5-27.5zm-457 40c-6.9 0-12.5-5.6-12.5-12.5s5.6-12.5 12.5-12.5S40 399.3 40 406.2s-5.6 12.5-12.5 12.5zM279 15h115v27.6H279V15zm0 140.6h72.8c4.1 0 7.5-3.4 7.5-7.5s-3.4-7.5-7.5-7.5H279v-83h115v83h-9.8c-4.1 0-7.5 3.4-7.5 7.5s3.4 7.5 7.5 7.5h9.8v113c-5-13.2-17.7-22.6-32.7-22.6-.7 0-1.4 0-2.1.1v-2c0-24-19.6-43.5-43.6-43.5-10.8 0-21 3.9-28.9 10.9-2.2-3.6-4.8-6.8-7.7-9.8v-46.1zM120 15h115v27.6H120V15zm0 125.6v-83h115v83H120zM268.5 445c0 6.9-5.6 12.5-12.5 12.5s-12.5-5.6-12.5-12.5 5.6-12.5 12.5-12.5 12.5 5.6 12.5 12.5zm76.5 39.5c0 6.9-5.6 12.5-12.5 12.5s-12.5-5.6-12.5-12.5 5.6-12.5 12.5-12.5 12.5 5.6 12.5 12.5zm-242-152c-13.5 0-24.5-11-24.5-24.4 0-13.5 11-24.4 24.5-24.4 4 0 8 1 11.5 2.9 2.5 1.3 5.5 1.2 7.9-.5s3.5-4.4 3.1-7.2c-.2-1.4-.3-2.9-.3-4.3 0-16.6 13.6-30.2 30.3-30.2 7.4 0 14.5 2.7 20 7.5 6.5 5.7 10.3 14 10.3 22.6 0 7.4-2.7 14.4-7.6 20-2.7 3.1-2.5 7.8.6 10.6 1.4 1.3 3.2 1.9 5 1.9 2.1 0 4.1-.9 5.6-2.5 7.3-8.3 11.3-18.9 11.3-29.9 0-11.8-4.7-23.1-12.9-31.5.6-25.2 21.2-45.5 46.6-45.5 18.1 0 34.6 10.6 42.2 26.8-3.1 6.1-4.7 12.8-4.7 19.7 0 14.9 7.5 28.6 20.1 36.6 1.3.8 2.7 1.2 4 1.2 2.5 0 4.9-1.2 6.3-3.5 2.2-3.5 1.2-8.1-2.3-10.4-8.2-5.3-13.2-14.3-13.2-24 0-5.4 1.5-10.7 4.4-15.2 5.3-8.3 14.3-13.3 24.2-13.3 15.8 0 28.6 12.8 28.6 28.5 0 3.3-.6 6.5-1.6 9.6-1 2.9-.2 6 2 8.1 2.2 2 5.5 2.5 8.2 1.2 2.6-1.3 5.5-1.9 8.5-1.9 11 0 19.9 8.9 19.9 19.8 0 .7 0 1.3-.1 1.9-.3 3 1.2 5.9 3.9 7.4s6 1.1 8.3-.8c4.4-3.6 9.9-5.6 15.6-5.6 13.5 0 24.5 11 24.5 24.4s-11 24.4-24.5 24.4H103zm381.5 86.2c-6.9 0-12.5-5.6-12.5-12.5s5.6-12.5 12.5-12.5 12.5 5.6 12.5 12.5-5.6 12.5-12.5 12.5z"/><path class="st0" d="M187 458v-74.2c0-4.1-3.4-7.5-7.5-7.5s-7.5 3.4-7.5 7.5V458c-11.5 3.3-20 13.9-20 26.5 0 15.2 12.3 27.5 27.5 27.5s27.5-12.3 27.5-27.5c0-12.6-8.5-23.2-20-26.5zm-7.5 39c-6.9 0-12.5-5.6-12.5-12.5s5.6-12.5 12.5-12.5 12.5 5.6 12.5 12.5-5.6 12.5-12.5 12.5z"/></svg>