<svg id="Capa_1" xmlns="http://www.w3.org/2000/svg" viewBox="0 0 512 512" width="244" height="203"><style>.st0{fill:#fff}</style><path class="st0" d="M16.3 231.8l25.6 12c-6.5 3.9-9.5 11.9-6.8 19.2L57 323.1c1.5 4 4.4 7.2 8.3 9 2.1 1 4.4 1.5 6.7 1.5 1.8 0 3.7-.3 5.5-1l15.8-5.8c7.3 11.9 20.4 19.1 34.1 19.1 4.5 0 9.1-.8 13.6-2.4l137.7-50.1c7.6 12.8 20.4 21 34.4 23l24.6 67.5c8 22.1 29.2 36.9 52.7 36.9H464v24c0 13.2 10.8 24 24 24h16c4.4 0 8-3.6 8-8v-128c0-4.4-3.6-8-8-8h-16c-13.2 0-24 10.8-24 24v24h-73.5c-3.4 0-6.4-2.1-7.6-5.3l-25.1-69c8.1-10.3 11.9-23.8 9.6-37.4l117.8-42.8c20.7-7.5 31.5-30.5 23.9-51.3l-24.6-67.7-10.9-30.1C466 48.7 443 38 422.3 45.5L18 192.5C2.8 198 .2 206.7 0 211.4c-.2 4.7 1.7 13.5 16.3 20.4zM480 348.9c0-4.4 3.6-8 8-8h8v112h-8c-4.4 0-8-3.6-8-8v-96zm-150-33c2.2-.5 4.3-1.1 6.4-1.9 3-1.1 5.8-2.4 8.5-4l23 63.1c3.4 9.5 12.5 15.8 22.6 15.8H464v16h-73.5c-16.8 0-31.9-10.6-37.7-26.4L330 315.9zm-35.8-28l57.8-21c.6 8.9-2.6 17.6-8.5 23.9-.4.3-.7.6-1 1-3.2 3.1-7.1 5.6-11.5 7.2-3.8 1.4-7.7 2-11.5 2h-.6c-9.7-.4-18.9-5.1-24.7-13.1zM62.1 253.1l4.2 2 20.8 57-15 5.5-21.9-60.2 11.9-4.3zm-46.1-41c.4-.7 2.3-2.7 7.4-4.5l404.3-147c12.4-4.5 26.2 1.9 30.8 14.3l8.2 22.5 2.7 7.5c4.5 12.4-1.9 26.2-14.3 30.8l-7.5 2.7c-4.2 1.5-6.3 6.1-4.8 10.3 1.5 4.2 6.1 6.3 10.3 4.8l7.5-2.7c8.5-3.1 15.2-8.7 19.8-15.7l13.7 37.6c4.5 12.4-1.9 26.2-14.3 30.8l-344.2 125c-12.4 4.5-26.2-1.9-30.8-14.3l-18.2-49.9c9.4 3.3 20.7 5 31.7 5 10.1 0 20.1-1.4 28.1-4.4l231.4-84.1c4.2-1.5 6.3-6.1 4.8-10.3-1.5-4.2-6.1-6.3-10.3-4.8L141 249.9c-14.6 5.3-38.9 4.3-53-2.3L76 242l-10.2-4.8L23 217.3c-4.9-2.3-6.6-4.5-7-5.2z"/><path class="st0" d="M397.7 165.1c1.2 3.2 4.2 5.3 7.5 5.3.9 0 1.8-.2 2.7-.5l15-5.5c4.2-1.5 6.3-6.1 4.8-10.3-1.5-4.2-6.1-6.3-10.3-4.8l-15 5.5c-4 1.6-6.2 6.2-4.7 10.3z"/></svg>