<svg id="Capa_1" xmlns="http://www.w3.org/2000/svg" viewBox="0 0 512 512" width="236" height="236"><style>.st0{fill:#fff}</style><path class="st0" d="M179.2 460.8h-68.3c-4.7 0-8.5 3.8-8.5 8.5s3.8 8.5 8.5 8.5h68.3c4.7 0 8.5-3.8 8.5-8.5s-3.8-8.5-8.5-8.5zM76.8 460.8H42.7c-4.7 0-8.5 3.8-8.5 8.5s3.8 8.5 8.5 8.5h34.1c4.7 0 8.5-3.8 8.5-8.5s-3.8-8.5-8.5-8.5z"/><path class="st0" d="M213.3 324.3H8.5c-4.7 0-8.5 3.8-8.5 8.5v68.3c0 4.7 3.8 8.5 8.5 8.5H17v17.1H8.5c-4.7 0-8.5 3.8-8.5 8.5v68.3c0 4.7 3.8 8.5 8.5 8.5h204.8c4.7 0 8.5-3.8 8.5-8.5v-68.3c0-4.7-3.8-8.5-8.5-8.5h-8.5v-17.1h8.5c4.7 0 8.5-3.8 8.5-8.5v-68.3c.1-4.7-3.8-8.5-8.5-8.5zm-196.2 17h187.7v51.2H17.1v-51.2zm187.7 153.6H17.1v-51.2h187.7v51.2zm-17.1-68.2H34.1v-17.1h153.6v17.1z"/><path class="st0" d="M51.2 375.5h17.1c4.7 0 8.5-3.8 8.5-8.5s-3.8-8.5-8.5-8.5H51.2c-4.7 0-8.5 3.8-8.5 8.5s3.8 8.5 8.5 8.5zM102.4 375.5h17.1c4.7 0 8.5-3.8 8.5-8.5s-3.8-8.5-8.5-8.5h-17.1c-4.7 0-8.5 3.8-8.5 8.5s3.8 8.5 8.5 8.5zM153.6 375.5h17.1c4.7 0 8.5-3.8 8.5-8.5s-3.8-8.5-8.5-8.5h-17.1c-4.7 0-8.5 3.8-8.5 8.5s3.8 8.5 8.5 8.5zM469.3 460.8H401c-4.7 0-8.5 3.8-8.5 8.5s3.8 8.5 8.5 8.5h68.3c4.7 0 8.5-3.8 8.5-8.5s-3.8-8.5-8.5-8.5zM366.9 460.8h-34.1c-4.7 0-8.5 3.8-8.5 8.5s3.8 8.5 8.5 8.5h34.1c4.7 0 8.5-3.8 8.5-8.5s-3.8-8.5-8.5-8.5z"/><path class="st0" d="M503.5 409.6c4.7 0 8.5-3.8 8.5-8.5v-68.3c0-4.7-3.8-8.5-8.5-8.5H298.7c-4.7 0-8.5 3.8-8.5 8.5v68.3c0 4.7 3.8 8.5 8.5 8.5h8.5v17.1h-8.5c-4.7 0-8.5 3.8-8.5 8.5v68.3c0 4.7 3.8 8.5 8.5 8.5h204.8c4.7 0 8.5-3.8 8.5-8.5v-68.3c0-4.7-3.8-8.5-8.5-8.5H495v-17.1h8.5zm-196.3-68.3h187.7v51.2H307.2v-51.2zm187.7 153.6H307.2v-51.2h187.7v51.2zm-17-68.2H324.3v-17.1h153.6v17.1z"/><path class="st0" d="M341.3 375.5h17.1c4.7 0 8.5-3.8 8.5-8.5s-3.8-8.5-8.5-8.5h-17.1c-4.7 0-8.5 3.8-8.5 8.5s3.8 8.5 8.5 8.5zM392.5 375.5h17.1c4.7 0 8.5-3.8 8.5-8.5s-3.8-8.5-8.5-8.5h-17.1c-4.7 0-8.5 3.8-8.5 8.5s3.8 8.5 8.5 8.5zM443.7 375.5h17.1c4.7 0 8.5-3.8 8.5-8.5s-3.8-8.5-8.5-8.5h-17.1c-4.7 0-8.5 3.8-8.5 8.5s3.8 8.5 8.5 8.5zM153.6 187.7h204.8c4.7 0 8.5-3.8 8.5-8.5v-68.3c0-4.7-3.8-8.5-8.5-8.5h-8.5V85.3h8.5c4.7 0 8.5-3.8 8.5-8.5V8.5c0-4.7-3.8-8.5-8.5-8.5H153.6c-4.7 0-8.5 3.8-8.5 8.5v68.3c0 4.7 3.8 8.5 8.5 8.5h8.5v17.1h-8.5c-4.7 0-8.5 3.8-8.5 8.5v68.3c0 4.7 3.8 8.5 8.5 8.5zm8.5-170.6h187.7v51.2H162.2V17.1zm17.1 68.2h153.6v17.1H179.2V85.3zm-17.1 34.2h187.7v51.2H162.1v-51.2z"/><path class="st0" d="M324.3 136.5H256c-4.7 0-8.5 3.8-8.5 8.5s3.8 8.5 8.5 8.5h68.3c4.7 0 8.5-3.8 8.5-8.5s-3.8-8.5-8.5-8.5zM221.9 136.5h-34.1c-4.7 0-8.5 3.8-8.5 8.5s3.8 8.5 8.5 8.5h34.1c4.7 0 8.5-3.8 8.5-8.5s-3.8-8.5-8.5-8.5zM196.3 51.2h17.1c4.7 0 8.5-3.8 8.5-8.5s-3.8-8.5-8.5-8.5h-17.1c-4.7 0-8.5 3.8-8.5 8.5s3.8 8.5 8.5 8.5zM247.5 51.2h17.1c4.7 0 8.5-3.8 8.5-8.5s-3.8-8.5-8.5-8.5h-17.1c-4.7 0-8.5 3.8-8.5 8.5s3.8 8.5 8.5 8.5zM298.7 51.2h17.1c4.7 0 8.5-3.8 8.5-8.5s-3.8-8.5-8.5-8.5h-17.1c-4.7 0-8.5 3.8-8.5 8.5s3.8 8.5 8.5 8.5zM392.5 273.1v17.1c0 4.7 3.8 8.5 8.5 8.5s8.5-3.8 8.5-8.5v-17.1c0-18.8-15.3-34.1-34.1-34.1H264.5v-17.1c0-4.7-3.8-8.5-8.5-8.5s-8.5 3.8-8.5 8.5V239h-111c-18.8 0-34.1 15.3-34.1 34.1v17.1c0 4.7 3.8 8.5 8.5 8.5s8.5-3.8 8.5-8.5v-17.1c0-9.4 7.7-17.1 17.1-17.1h238.9c9.5 0 17.1 7.7 17.1 17.1z"/></svg>