<svg id="Layer_1" xmlns="http://www.w3.org/2000/svg" viewBox="0 0 489.6 489.6" width="229" height="249"><style>.st0{fill:#fff}</style><path class="st0" d="M422 382v-58c0-5-4.1-9.1-9.1-9.1h-159v-54.1c0-.9-.2-1.7-.4-2.5 14-.9 27.7-4.1 40.8-9.5 65.9-27.3 97.3-103.1 70-168.9C344.2 31.4 297.3 0 244.8 0c-17 0-33.6 3.3-49.4 9.9-31.9 13.2-56.8 38.1-70 70s-13.2 67.1 0 99c19 45.8 61.9 76.3 110.8 79.6-.2.8-.4 1.6-.4 2.5v54.1h-159c-5 0-9.1 4.1-9.1 9.1v58c-25.8 4.1-45.5 26.5-45.5 53.4 0 29.8 24.2 54 54 54s54-24.2 54-54c0-26.5-19.2-48.6-44.4-53.2v-49.1h150v49c-25.5 4.3-45 26.6-45 53.3 0 29.8 24.2 54 54 54s54-24.2 54-54c0-26.7-19.5-48.9-45-53.3v-49h150v49.1c-25.2 4.5-44.4 26.7-44.4 53.2 0 29.8 24.2 54 54 54s54-24.2 54-54c.1-27.1-19.7-49.5-45.4-53.6zM139.9 166.2c-8.5-24-8.5-49.8 0-73.8h31.6c-2.3 12-3.5 24.4-3.5 36.7 0 11.4 1.6 24.2 4.5 37.1h-32.6zm46.2-37.1c0-12.6 1.4-25 3.9-36.7h45.7v73.8h-44.8c-3-12.5-4.8-25.2-4.8-37.1zm163.6-36.7c8.7 24.7 8.1 50.6-.1 73.8h-31.2c2.9-12.9 4.5-25.7 4.5-37.1 0-12.3-1.2-24.7-3.5-36.7h30.3zm-44.9 36.7c0 11.9-1.8 24.7-4.8 37.1h-46.1V92.4h47c2.5 11.7 3.9 24.1 3.9 36.7zm-50.9 109v-53.8h40.5c-9.5 26-24.4 47.9-40.5 53.8zm0-163.8V19.9c17 5.4 32.7 26.6 42 54.4h-42zm-18.2-53.9v53.9H195c9.1-27.1 24.2-47.9 40.7-53.9zm0 163.9v53.2c-15.7-6.5-30.1-27.9-39.3-53.2h39.3zm54.6 46.4c9.8-12.9 17.6-29.3 23.2-46.4h27.9c-11.4 19.9-28.8 36.4-51.1 46.4zm51.1-156.4h-26.5c-3.4-11.5-7.8-22.4-13.2-32-2.6-4.7-5.4-9-8.3-13 20 9.6 36.8 25.2 48 45zM198 28.5c-3.1 4.2-6.1 8.8-8.8 13.8-5.4 9.7-9.8 20.5-13.2 32h-27.7c11.3-20.1 28.5-36 49.7-45.8zm-49.8 155.8h29.2c5.7 17.5 13.8 34.3 23.9 47.4-22.1-9.4-40.9-25.9-53.1-47.4zm-36.1 251.1c0 19.8-16.1 35.9-35.9 35.9s-35.9-16.1-35.9-35.9 16.1-35.9 35.9-35.9 35.9 16.1 35.9 35.9zm168.6 0c0 19.8-16.1 35.9-35.9 35.9s-35.9-16.1-35.9-35.9 16.1-35.9 35.9-35.9 35.9 16.1 35.9 35.9zm132.7 35.9c-19.8 0-35.9-16.1-35.9-35.9s16.1-35.9 35.9-35.9 35.9 16.1 35.9 35.9c.1 19.8-16.1 35.9-35.9 35.9z"/></svg>