<svg id="Capa_1" xmlns="http://www.w3.org/2000/svg" viewBox="0 0 512 512" width="253" height="233"><style>.st0{fill:#fff}</style><path class="st0" d="M443.5 175.4v-20L512 152v-37.2l-68.5-3.4V95.9H390v-68C390 12.5 378.4 0 364.2 0H147.8C133.6 0 122 12.5 122 27.9v68H68.4v15.4L0 114.8V152l68.4 3.4v20h53.5v43.2H68.4V234L0 237.4v37.1l68.4 3.5v20h53.5v47.8H68.4v15.4L0 364.7v37.2l68.4 3.4v20h53.5V484c0 15.4 11.6 27.9 25.8 27.9h216.4c14.2 0 25.8-12.5 25.8-27.9v-58.7h53.5v-20l68.5-3.4v-37.2l-68.5-3.4v-15.4H390V298h53.5v-20l68.5-3.5v-37.1l-68.5-3.4v-15.4H390v-43.2h53.5zm54.9 203.3v9.1l-68.5 3.4v19.4h-37.8v-50.1H430v14.7l68.4 3.5zM430 264v19.3h-37.8v-50.1H430V248l68.5 3.4v9.1L430 264zm68.4-135.2v9.1l-68.5 3.4v19.3h-37.8v-50.1H430v14.7l68.4 3.6zM364.2 497.3H147.8c-6.8 0-12.2-5.9-12.2-13.2V27.9c0-7.3 5.5-13.3 12.2-13.3h216.4c6.7 0 12.2 5.9 12.2 13.3V484c0 7.4-5.4 13.3-12.2 13.3zM13.6 387.8v-9.1l68.5-3.4v-14.7h37.8v50.1H82v-19.4l-68.4-3.5zm0-127.2v-9.1L82 248v-14.8h37.8v50.1H82V264l-68.4-3.4zm0-122.7v-9.1l68.5-3.4v-14.7h37.8v50.1H82v-19.3l-68.4-3.6z"/><ellipse class="st0" cx="169.4" cy="54.7" rx="16.8" ry="18.1"/></svg>