<svg id="Слой_1" xmlns="http://www.w3.org/2000/svg" viewBox="0 0 80 80"><style>.st0{fill:#9bbb30}.st1{fill:#fff}</style><path class="st0" d="M68.2 68.3C75.5 61.1 80 51.1 80 40 80 17.9 62.1 0 40 0S0 17.9 0 40s17.9 40 40 40c7.5 0 14.5-2.1 20.5-5.7l10.6 4.9c.3.2.7-.2.6-.5l-3.5-10.4z"/><path class="st1" d="M60.3 52.3l-6.6-6.6c-1.3-1.3-3.5-1.3-4.8.1l-3.3 3.3c-.2-.1-.4-.2-.7-.4C42.8 47.5 40 46 37 43s-4.6-5.9-5.8-8c-.1-.2-.2-.4-.4-.6l2.2-2.2 1.1-1.1c1.4-1.4 1.4-3.5.1-4.8l-6.6-6.6c-1.3-1.3-3.5-1.3-4.8.1L21 21.7l.1.1c-.6.8-1.1 1.7-1.5 2.7-.4.9-.6 1.8-.7 2.7-.9 7.2 2.4 13.7 11.3 22.6 12.3 12.3 22.2 11.4 22.6 11.3.9-.1 1.8-.3 2.7-.7 1-.4 1.9-.9 2.7-1.5l1.9-1.8c1.4-1.3 1.5-3.5.2-4.8z"/></svg>