<?xml version="1.0" encoding="utf-8"?>
<!-- Generator: Adobe Illustrator 21.0.0, SVG Export Plug-In . SVG Version: 6.00 Build 0)  -->
<svg version="1.1" id="Слой_1" xmlns="http://www.w3.org/2000/svg" xmlns:xlink="http://www.w3.org/1999/xlink" x="0px" y="0px"
	 viewBox="0 0 80 80" style="enable-background:new 0 0 80 80;" xml:space="preserve">
<style type="text/css">
	.st0{fill:#9BBB30;}
	.st1{fill:#FFFFFF;}
</style>
<g>
	<g>
		<path class="st0" d="M68.2,68.3C75.5,61.1,80,51.1,80,40C80,17.9,62.1,0,40,0S0,17.9,0,40s17.9,40,40,40c7.5,0,14.5-2.1,20.5-5.7
			l10.6,4.9c0.3,0.2,0.7-0.2,0.6-0.5L68.2,68.3z"/>
	</g>
	<g>
		<g>
			<g>
				<g>
					<path class="st1" d="M60.3,52.3l-6.6-6.6c-1.3-1.3-3.5-1.3-4.8,0.1l-3.3,3.3c-0.2-0.1-0.4-0.2-0.7-0.4C42.8,47.5,40,46,37,43
						s-4.6-5.9-5.8-8c-0.1-0.2-0.2-0.4-0.4-0.6l2.2-2.2l1.1-1.1c1.4-1.4,1.4-3.5,0.1-4.8l-6.6-6.6c-1.3-1.3-3.5-1.3-4.8,0.1L21,21.7
						l0.1,0.1c-0.6,0.8-1.1,1.7-1.5,2.7c-0.4,0.9-0.6,1.8-0.7,2.7c-0.9,7.2,2.4,13.7,11.3,22.6c12.3,12.3,22.2,11.4,22.6,11.3
						c0.9-0.1,1.8-0.3,2.7-0.7c1-0.4,1.9-0.9,2.7-1.5l0,0l1.9-1.8C61.5,55.8,61.6,53.6,60.3,52.3z"/>
				</g>
			</g>
		</g>
	</g>
</g>
</svg>
