<?xml version="1.0" encoding="utf-8"?>
<!-- Generator: Adobe Illustrator 21.1.0, SVG Export Plug-In . SVG Version: 6.00 Build 0)  -->
<svg version="1.1" id="Capa_1" xmlns="http://www.w3.org/2000/svg" xmlns:xlink="http://www.w3.org/1999/xlink" x="0px" y="0px"
	 viewBox="0 0 512 512" style="enable-background:new 0 0 512 512;" xml:space="preserve">
<style type="text/css">
	.st0{fill:#B8E281;}
</style>
<path shape-rendering="auto" image-rendering="auto" color-rendering="auto" color-interpolation="sRGB" class="st0" d="M64.2,132.8
	c-37,2.9-67.4,35.4-64,73.5c3,32.7,31.9,59.5,65.7,56c28.4-3,51.7-28.4,47.9-58c-3.1-24-25-43.8-50.4-39.8
	c-19.7,3.1-36,21.7-31.5,42.9c1.6,7.7,6,14.3,12.3,18.8c6.3,4.5,15,6.7,23.5,4c5.6-1.8,10-5.3,13.1-10.5c3-5.1,4-13.1,0-19.5
	c-3.3-5.1-6.2-6.1-10.9-6.9c-2.3-0.4-5.6-0.5-9.1,1.7c-3.5,2.3-5.3,7-5.3,10.3c0,2.5,0.9,5,2.7,6.8c-0.9-0.3-1.9-0.6-2.8-1.3
	c-2.3-1.6-4.3-4.6-4.8-7.4c-2-9.5,6.1-18.7,15.9-20.3c13.9-2.2,26.8,9.4,28.6,23.4c2.3,18.3-12.8,34.8-31.1,36.8
	c-22.7,2.4-42.8-16.2-44.8-38.8c-2.5-27,19.7-50.7,46.6-52.9c0.2,0,0.5,0,0.7,0h379.1c0.2,0,0.5,0,0.7,0
	c26.9,2.1,49.1,25.8,46.6,52.9c-2.1,22.6-22.1,41.2-44.8,38.8c-18.3-1.9-33.4-18.4-31.1-36.8c1.8-14,14.7-25.6,28.6-23.4
	c9.8,1.6,17.9,10.8,15.9,20.3c-0.6,2.8-2.6,5.8-4.8,7.4c-1,0.7-1.9,1.1-2.8,1.3c1.8-1.8,2.8-4.2,2.7-6.8c0-3.3-1.8-8-5.3-10.3
	c-3.5-2.3-6.8-2.1-9.1-1.7c-4.7,0.8-7.7,1.8-10.9,6.9c-4,6.3-3.1,14.3,0,19.5c3,5.1,7.5,8.7,13.1,10.5c8.5,2.7,17.3,0.5,23.5-4
	s10.7-11.2,12.3-18.8c4.5-21.2-11.8-39.8-31.5-42.9c-25.4-4-47.3,15.7-50.4,39.8c-3.8,29.6,19.5,55,47.9,58
	c33.8,3.6,62.7-23.2,65.7-56c3.5-38.1-26.9-70.5-64-73.5c-0.8-0.1-1.5-0.1-2.2-0.1H66.5C65.7,132.7,64.9,132.8,64.2,132.8
	L64.2,132.8z M28.6,38c-5.2,0-9.5,4.2-9.5,9.5v19c0,2.5,1,4.9,2.8,6.7l37.9,37.9c1.8,1.8,4.2,2.8,6.7,2.8h379.1c2.5,0,4.9-1,6.7-2.8
	l37.9-37.9c1.8-1.8,2.8-4.2,2.8-6.7v-19c0-5.2-4.2-9.5-9.5-9.5H28.6z M38,57H474v5.5l-32.4,32.4H70.4L38,62.5V57z M142.3,189.7
	c-5.2,0-9.5,4.2-9.5,9.5v265.4c0,5.2,4.2,9.5,9.5,9.5c1.9,0,3.7-0.6,5.3-1.6l53.9-35.9c2.6-1.7,4.2-4.6,4.2-7.7l3-172.6
	c0-0.1,0-0.1,0-0.2c0-6.2,19.1-6.4,19-0.2c0,0.1,0,0.1,0,0.2v151.6c0,5.2,4.2,9.5,9.5,9.5c1.9,0,3.7-0.6,5.3-1.6l56.9-37.9
	c2.6-1.8,4.2-4.7,4.2-7.9V256c0-6.3,19-6.3,19,0v94.8c0,5.2,4.2,9.5,9.5,9.5c1.5,0,2.9-0.3,4.2-1l37.9-19c3.2-1.6,5.2-4.9,5.2-8.5
	V199.1c0-5.2-4.2-9.5-9.5-9.5L142.3,189.7L142.3,189.7L142.3,189.7z M151.8,208.6h208.5V326l-19,9.5V256c0-31.6-56.9-31.6-56.9,0
	v108.7l-37.9,25.3V256v0.2c0.6-31.7-56.9-31.9-56.9-0.2v-0.2l-2.9,167.6l-35,23.4L151.8,208.6L151.8,208.6z"/>
</svg>
