<?xml version="1.0" encoding="utf-8"?>
<!-- Generator: Adobe Illustrator 21.0.0, SVG Export Plug-In . SVG Version: 6.00 Build 0)  -->
<svg version="1.1" id="Слой_1" xmlns="http://www.w3.org/2000/svg" xmlns:xlink="http://www.w3.org/1999/xlink" x="0px" y="0px"
	 viewBox="0 0 20.5 20.5" style="enable-background:new 0 0 20.5 20.5;" xml:space="preserve">
<style type="text/css">
	.st0{fill:#313B0F;}
</style>
<g id="instagram_7_">
	<path class="st0" d="M10.3,1.8c2.7,0,3.1,0,4.1,0.1c1,0,1.5,0.2,1.9,0.4c0.5,0.2,0.8,0.4,1.2,0.8c0.4,0.4,0.6,0.7,0.8,1.2
		c0.1,0.4,0.3,0.9,0.4,1.9c0,1.1,0.1,1.4,0.1,4.1c0,2.7,0,3.1-0.1,4.1c0,1-0.2,1.5-0.4,1.9c-0.2,0.5-0.4,0.8-0.8,1.2
		c-0.4,0.4-0.7,0.6-1.2,0.8c-0.4,0.1-0.9,0.3-1.9,0.4c-1.1,0-1.4,0.1-4.1,0.1s-3.1,0-4.1-0.1c-1,0-1.5-0.2-1.9-0.4
		c-0.5-0.2-0.8-0.4-1.2-0.8c-0.4-0.4-0.6-0.7-0.8-1.2c-0.1-0.4-0.3-0.9-0.4-1.9c0-1.1-0.1-1.4-0.1-4.1c0-2.7,0-3.1,0.1-4.1
		c0-1,0.2-1.5,0.4-1.9C2.4,3.7,2.7,3.4,3,3c0.4-0.4,0.7-0.6,1.2-0.8C4.6,2.1,5.1,2,6.1,1.9C7.2,1.9,7.5,1.8,10.3,1.8 M10.3,0
		C7.5,0,7.1,0,6,0.1c-1.1,0-1.8,0.2-2.5,0.5C2.9,0.8,2.3,1.2,1.7,1.7S0.8,2.9,0.5,3.5C0.3,4.2,0.1,4.9,0.1,6C0,7.1,0,7.5,0,10.3
		c0,2.8,0,3.1,0.1,4.2c0,1.1,0.2,1.8,0.5,2.5c0.3,0.7,0.6,1.2,1.2,1.8s1.1,0.9,1.8,1.2c0.7,0.3,1.4,0.4,2.5,0.5
		c1.1,0,1.4,0.1,4.2,0.1s3.1,0,4.2-0.1c1.1,0,1.8-0.2,2.5-0.5c0.7-0.3,1.2-0.6,1.8-1.2s0.9-1.1,1.2-1.8c0.3-0.7,0.4-1.4,0.5-2.5
		c0-1.1,0.1-1.4,0.1-4.2s0-3.1-0.1-4.2c0-1.1-0.2-1.8-0.5-2.5c-0.3-0.7-0.6-1.2-1.2-1.8S17.6,0.8,17,0.5c-0.7-0.3-1.4-0.4-2.5-0.5
		C13.4,0,13,0,10.3,0L10.3,0z"/>
	<path class="st0" d="M10.3,5C7.3,5,5,7.3,5,10.3s2.4,5.3,5.3,5.3s5.3-2.4,5.3-5.3S13.2,5,10.3,5z M10.3,13.7
		c-1.9,0-3.4-1.5-3.4-3.4s1.5-3.4,3.4-3.4s3.4,1.5,3.4,3.4S12.1,13.7,10.3,13.7z"/>
	<circle class="st0" cx="15.7" cy="4.8" r="1.2"/>
</g>
</svg>
