<?xml version="1.0" encoding="utf-8"?>
<!-- Generator: Adobe Illustrator 22.1.0, SVG Export Plug-In . SVG Version: 6.00 Build 0)  -->
<svg version="1.1" id="Слой_1" xmlns="http://www.w3.org/2000/svg" xmlns:xlink="http://www.w3.org/1999/xlink" x="0px" y="0px"
	 viewBox="0 0 240.4 29.5" style="enable-background:new 0 0 240.4 29.5;" xml:space="preserve">
<style type="text/css">
	.st0{fill:#FFFFFF;}
	.st1{fill:none;stroke:#FFFFFF;stroke-linecap:round;stroke-miterlimit:10;}
</style>
<g>
	<g>
		<path class="st0" d="M21,10.2c1.2,1.2,1.7,2.5,1.7,4.1c0,1.7-0.6,3-1.7,4.2c-1.2,1.2-2.6,1.7-4.2,1.7c-1.6,0-3-0.6-4.1-1.7
			c-1.2-1.2-1.7-2.5-1.7-4.2c0-1.6,0.6-3,1.7-4.1c1.2-1.2,2.5-1.7,4.1-1.7C18.5,8.4,19.9,9,21,10.2z"/>
		<path class="st0" d="M16.4,0.3c-0.7-0.1-1.4-0.2-2.2-0.2C6.5,0.1,0.2,6.2,0.1,14C0,14.1,0,14.2,0,14.3c0,6.5,4.4,12,10.3,13.7
			c1.3,0.3,2.5,0.5,3.9,0.5c7.1,0,13.1-5.2,14.1-12.1c0.1-0.7,0.2-1.4,0.2-2.1C28.5,7.2,23.2,1.3,16.4,0.3z M22.5,20
			c-1.6,1.5-3.5,2.3-5.7,2.3c-2.2,0-4.1-0.8-5.7-2.4c-1.3-1.3-2.1-2.8-2.3-4.6h-1v5.9c0,0.2,0,0.3-0.1,0.4C7.7,21.8,7.6,22,7.5,22
			c-0.1,0.1-0.2,0.2-0.3,0.3c-0.2,0.1-0.3,0.1-0.4,0.1c-0.2,0-0.3,0-0.4-0.1c-0.2-0.1-0.3-0.2-0.3-0.3C6,22,6,22,6,22l-0.1-0.1
			c-0.1-0.1-0.1-0.1-0.1-0.2c-0.1-0.1-0.1-0.3-0.1-0.4V7.4c0-0.2,0-0.3,0.1-0.4C5.9,6.8,6,6.7,6.1,6.6c0.1-0.1,0.2-0.2,0.3-0.2
			c0.1-0.1,0.3-0.1,0.4-0.1c0.2,0,0.3,0.1,0.4,0.1c0.1,0.1,0.3,0.1,0.3,0.2C7.6,6.7,7.7,6.8,7.8,7c0.1,0.1,0.1,0.3,0.1,0.4v5.9h1
			c0.2-1.7,1-3.3,2.3-4.6c1.6-1.6,3.5-2.4,5.7-2.4c2.2,0,4.1,0.8,5.7,2.4c0.2,0.3,0.4,0.5,0.6,0.7c0.2,0.2,0.3,0.4,0.5,0.6
			c0.3,0.4,0.5,0.8,0.7,1.3c0.4,0.9,0.6,1.9,0.6,3C24.9,16.6,24.1,18.5,22.5,20z"/>
		<path class="st0" d="M115.6,6.6c-0.2-0.2-0.5-0.3-0.7-0.3c-0.3,0-0.6,0.1-0.8,0.3c-0.2,0.2-0.3,0.5-0.3,0.8v5.9h-7.1V7.4
			c0-0.3-0.1-0.6-0.3-0.8c-0.2-0.2-0.5-0.3-0.7-0.3c-0.3,0-0.6,0.1-0.8,0.3c-0.2,0.2-0.3,0.5-0.3,0.8v13.9c0,0.3,0.1,0.5,0.3,0.7
			c0.2,0.2,0.5,0.3,0.8,0.3c0.3,0,0.5-0.1,0.7-0.3c0.2-0.2,0.3-0.4,0.3-0.7v-5.9h7.1v5.9c0,0.3,0.1,0.5,0.3,0.7
			c0.2,0.2,0.5,0.3,0.8,0.3c0.3,0,0.5-0.1,0.7-0.3c0.2-0.2,0.3-0.4,0.3-0.7V7.4C115.9,7.1,115.8,6.8,115.6,6.6z M99.5,1.8
			c-0.2-0.2-0.5-0.3-0.8-0.3c-0.3,0-0.5,0.1-0.7,0.3c-0.2,0.2-0.3,0.3-0.3,0.5c-0.1,0.2-0.2,0.3-0.4,0.5C97.1,3,96.8,3,96.5,3
			c-0.4,0-0.7-0.1-0.9-0.2c-0.3-0.2-0.4-0.3-0.4-0.5c0-0.2-0.1-0.4-0.3-0.5c-0.2-0.2-0.4-0.3-0.7-0.3c-0.3,0-0.6,0.1-0.8,0.3
			c-0.2,0.2-0.3,0.4-0.3,0.7c0,0.4,0.1,0.7,0.3,1c0.2,0.3,0.4,0.6,0.7,0.8c0.3,0.2,0.6,0.4,1,0.5c0.4,0.2,0.8,0.2,1.3,0.2
			c0.4,0,0.9-0.1,1.3-0.2c0.4-0.1,0.8-0.3,1-0.5c0.3-0.3,0.6-0.5,0.7-0.8c0.2-0.3,0.3-0.6,0.3-1C99.8,2.3,99.7,2,99.5,1.8z M102.9,7
			c-0.1-0.2-0.2-0.3-0.3-0.4c-0.1-0.1-0.2-0.2-0.3-0.2c-0.1-0.1-0.3-0.1-0.4-0.1c-0.3,0-0.6,0.2-0.8,0.4l-8.9,11.5V7.4
			c0-0.3-0.1-0.6-0.3-0.8c-0.2-0.2-0.5-0.3-0.8-0.3c-0.3,0-0.5,0.1-0.7,0.3C90.1,6.8,90,7.1,90,7.4v13.9c0,0.2,0.1,0.3,0.1,0.4
			c0.1,0.1,0.1,0.3,0.2,0.3c0.1,0.1,0.2,0.2,0.3,0.3c0.2,0.1,0.3,0.1,0.4,0.1c0.3,0,0.6-0.1,0.8-0.4l8.9-11.5v10.8
			c0,0.3,0.1,0.5,0.3,0.7c0.2,0.2,0.5,0.3,0.8,0.3c0.3,0,0.5-0.1,0.7-0.3c0.2-0.2,0.3-0.4,0.3-0.7V7.4C102.9,7.2,102.9,7.1,102.9,7z
			 M88.4,20.9L83.1,7c-0.2-0.5-0.6-0.7-1-0.7c-0.5,0-0.8,0.3-1,0.7l-5.4,13.8c-0.1,0.2-0.1,0.3-0.1,0.5c0,0.3,0.1,0.5,0.3,0.7
			c0.2,0.2,0.4,0.3,0.7,0.3s0.5-0.1,0.7-0.3c0.1-0.1,0.2-0.2,0.3-0.3l1.8-4.8h5.1l1.9,4.8c0.1,0.1,0.1,0.2,0.2,0.3
			c0.2,0.2,0.5,0.3,0.7,0.3c0.3,0,0.6-0.1,0.8-0.3c0.2-0.2,0.3-0.4,0.3-0.7C88.6,21.1,88.5,21,88.4,20.9z M80.3,14.8l1.7-4.5
			l1.8,4.5H80.3z M74,20.9L68.6,7.1c-0.2-0.5-0.5-0.8-1-0.8c-0.5,0-0.8,0.3-1,0.8l-5.4,13.8c-0.1,0.2-0.1,0.3-0.1,0.4
			c0,0.2,0,0.3,0.1,0.4c0.1,0.1,0.2,0.3,0.2,0.3c0.1,0.1,0.2,0.2,0.4,0.3c0.1,0.1,0.3,0.1,0.4,0.1c0.4,0,0.8-0.2,1-0.6l4.4-11.4
			L72,21.7c0.2,0.4,0.5,0.6,1,0.6c0.2,0,0.3,0,0.4-0.1c0.2-0.1,0.3-0.2,0.4-0.3c0.1-0.1,0.2-0.2,0.2-0.3c0.1-0.1,0.1-0.3,0.1-0.4
			C74.1,21.1,74.1,21,74,20.9z M59.4,6.6c-0.2-0.2-0.4-0.3-0.7-0.3c-0.3,0-0.6,0.1-0.7,0.3c-0.2,0.2-0.3,0.5-0.3,0.8v5.9h-7.2V7.4
			c0-0.3-0.1-0.6-0.3-0.8c-0.2-0.2-0.4-0.3-0.7-0.3c-0.3,0-0.5,0.1-0.7,0.3c-0.2,0.2-0.3,0.5-0.3,0.8v13.9c0,0.3,0.1,0.5,0.3,0.7
			c0.2,0.2,0.4,0.3,0.7,0.3c0.3,0,0.5-0.1,0.7-0.3c0.2-0.2,0.3-0.4,0.3-0.7v-5.9h7.2v5.9c0,0.3,0.1,0.5,0.3,0.7
			c0.2,0.2,0.4,0.3,0.7,0.3c0.3,0,0.5-0.1,0.7-0.3c0.2-0.2,0.3-0.4,0.3-0.7V7.4C59.7,7.1,59.6,6.8,59.4,6.6z M46.2,11.3
			c-0.4-0.9-1-1.8-1.8-2.6c-1.6-1.6-3.5-2.4-5.7-2.4c-2.2,0-4.1,0.8-5.7,2.4c-1.6,1.6-2.4,3.5-2.4,5.7c0,2.3,0.8,4.1,2.4,5.7
			c1.6,1.5,3.5,2.3,5.7,2.3c2.2,0,4.1-0.8,5.7-2.3c1.6-1.6,2.4-3.5,2.4-5.7C46.7,13.2,46.5,12.2,46.2,11.3z M42.9,18.5
			c-1.2,1.2-2.6,1.7-4.2,1.7s-3-0.6-4.1-1.7c-1.2-1.2-1.7-2.6-1.7-4.2c0-0.8,0.1-1.6,0.4-2.3c0.3-0.7,0.7-1.3,1.3-1.9
			c0.6-0.6,1.2-1,1.9-1.3c0.7-0.3,1.4-0.4,2.3-0.4c1.6,0,3,0.6,4.2,1.7c1.1,1.2,1.7,2.5,1.7,4.1S44,17.4,42.9,18.5z"/>
	</g>
	<line class="st1" x1="126.3" y1="0.5" x2="126.3" y2="29"/>
	<g>
		<path class="st0" d="M142.2,14.6c0,1.6-0.4,2.9-1.2,3.9c-0.8,1-2,1.4-3.4,1.4c-1.4,0-2.6-0.5-3.4-1.4c-0.8-1-1.2-2.3-1.2-3.9
			c0-1.7,0.4-3,1.2-3.9c0.8-0.9,2-1.4,3.4-1.4c1.4,0,2.6,0.5,3.4,1.4C141.7,11.7,142.2,13,142.2,14.6z M133.7,14.6
			c0,1.5,0.3,2.6,1,3.4c0.7,0.8,1.6,1.2,2.9,1.2c1.2,0,2.2-0.4,2.9-1.2c0.7-0.8,1-2,1-3.5c0-1.5-0.3-2.6-1-3.4
			c-0.7-0.8-1.6-1.2-2.9-1.2c-1.2,0-2.2,0.4-2.9,1.2C134,12,133.7,13.2,133.7,14.6z"/>
		<path class="st0" d="M145.1,19.8h-0.7v-7.7h6.2v7.7h-0.7v-7h-4.7V19.8z"/>
		<path class="st0" d="M156.2,20c-1.1,0-2-0.3-2.6-1c-0.6-0.7-0.9-1.7-0.9-2.9c0-1.2,0.3-2.2,0.9-3c0.6-0.7,1.4-1.1,2.4-1.1
			c0.9,0,1.6,0.3,2.2,1c0.5,0.6,0.8,1.5,0.8,2.6v0.6h-5.6c0,1.1,0.3,1.9,0.7,2.4c0.5,0.6,1.2,0.8,2.1,0.8c0.4,0,0.8,0,1.2-0.1
			c0.3-0.1,0.8-0.2,1.3-0.4v0.6c-0.4,0.2-0.8,0.3-1.2,0.4C157.1,20,156.7,20,156.2,20z M156,12.6c-0.7,0-1.3,0.2-1.8,0.7
			c-0.4,0.5-0.7,1.2-0.8,2.1h4.8c0-0.9-0.2-1.6-0.6-2.1C157.2,12.9,156.7,12.6,156,12.6z"/>
		<path class="st0" d="M164.4,20c-1.2,0-2.1-0.4-2.6-1.3h0l0,0.6c0,0.4,0,0.7,0,1.1v2.9h-0.7V12.1h0.6l0.1,1.1h0
			c0.5-0.8,1.4-1.2,2.5-1.2c1,0,1.8,0.3,2.4,1c0.5,0.7,0.8,1.7,0.8,3c0,1.3-0.3,2.3-0.9,2.9C166.2,19.6,165.4,20,164.4,20z
			 M164.4,19.4c0.8,0,1.4-0.3,1.8-0.9c0.4-0.6,0.6-1.4,0.6-2.5c0-2.3-0.8-3.4-2.5-3.4c-0.9,0-1.6,0.2-2,0.7s-0.6,1.3-0.6,2.4V16
			c0,1.2,0.2,2.1,0.6,2.6C162.8,19.1,163.5,19.4,164.4,19.4z"/>
		<path class="st0" d="M174.4,19.8l-0.2-1.2h-0.1c-0.4,0.5-0.8,0.8-1.2,1.1c-0.4,0.2-0.9,0.3-1.5,0.3c-0.8,0-1.3-0.2-1.8-0.6
			s-0.6-0.9-0.6-1.6c0-0.8,0.3-1.3,0.9-1.8c0.6-0.4,1.5-0.6,2.7-0.7l1.5,0v-0.5c0-0.7-0.1-1.3-0.4-1.7c-0.3-0.4-0.8-0.6-1.4-0.6
			c-0.7,0-1.5,0.2-2.2,0.6l-0.3-0.6c0.8-0.4,1.7-0.6,2.5-0.6c0.8,0,1.5,0.2,1.9,0.7c0.4,0.4,0.6,1.1,0.6,2.1v5.1H174.4z M171.6,19.3
			c0.8,0,1.5-0.2,1.9-0.7c0.5-0.5,0.7-1.1,0.7-2v-0.8l-1.3,0.1c-1.1,0.1-1.9,0.2-2.3,0.5c-0.5,0.3-0.7,0.7-0.7,1.3
			c0,0.5,0.1,0.9,0.4,1.1C170.6,19.2,171,19.3,171.6,19.3z"/>
		<path class="st0" d="M182.3,12.7h-2.6v7.1h-0.7v-7.1h-2.6v-0.6h5.9V12.7z"/>
		<path class="st0" d="M190.3,16c0,1.3-0.3,2.2-0.9,2.9s-1.5,1.1-2.5,1.1c-0.7,0-1.3-0.2-1.8-0.5c-0.5-0.3-0.9-0.8-1.2-1.4
			c-0.3-0.6-0.4-1.3-0.4-2.1c0-1.3,0.3-2.2,0.9-2.9c0.6-0.7,1.4-1.1,2.5-1.1c1.1,0,1.9,0.4,2.5,1.1C190,13.8,190.3,14.7,190.3,16z
			 M184.2,16c0,1.1,0.2,1.9,0.7,2.5c0.5,0.6,1.1,0.9,2,0.9s1.5-0.3,2-0.9c0.5-0.6,0.7-1.4,0.7-2.5c0-1.1-0.2-1.9-0.7-2.5
			c-0.5-0.6-1.1-0.9-2-0.9s-1.5,0.3-2,0.9C184.4,14.1,184.2,14.9,184.2,16z"/>
		<path class="st0" d="M195.7,20c-1.2,0-2.1-0.4-2.6-1.3h0l0,0.6c0,0.4,0,0.7,0,1.1v2.9h-0.7V12.1h0.6l0.1,1.1h0
			c0.5-0.8,1.4-1.2,2.5-1.2c1,0,1.8,0.3,2.4,1c0.5,0.7,0.8,1.7,0.8,3c0,1.3-0.3,2.3-0.9,2.9C197.5,19.6,196.7,20,195.7,20z
			 M195.7,19.4c0.8,0,1.4-0.3,1.8-0.9c0.4-0.6,0.6-1.4,0.6-2.5c0-2.3-0.8-3.4-2.5-3.4c-0.9,0-1.6,0.2-2,0.7s-0.6,1.3-0.6,2.4V16
			c0,1.2,0.2,2.1,0.6,2.6C194.1,19.1,194.8,19.4,195.7,19.4z"/>
		<path class="st0" d="M207.9,20c-1.1,0-2-0.3-2.6-1c-0.6-0.7-0.9-1.7-0.9-2.9c0-1.3,0.3-2.3,1-3c0.6-0.7,1.5-1.1,2.7-1.1
			c0.7,0,1.3,0.1,1.9,0.3l-0.2,0.6c-0.7-0.2-1.2-0.3-1.7-0.3c-0.9,0-1.7,0.3-2.2,0.9c-0.5,0.6-0.7,1.4-0.7,2.5c0,1,0.2,1.9,0.7,2.4
			c0.5,0.6,1.2,0.9,2,0.9c0.7,0,1.4-0.1,2-0.4v0.7C209.4,19.9,208.7,20,207.9,20z"/>
		<path class="st0" d="M217.7,14c0,0.5-0.1,0.9-0.4,1.1c-0.2,0.3-0.6,0.5-1.2,0.6v0c0.6,0.1,1.1,0.3,1.3,0.5
			c0.3,0.3,0.4,0.7,0.4,1.2c0,0.7-0.2,1.3-0.7,1.7c-0.5,0.4-1.2,0.6-2.1,0.6h-3.3v-7.7h3.3c0.9,0,1.5,0.2,2,0.5
			C217.5,12.9,217.7,13.4,217.7,14z M216.9,14c0-0.4-0.2-0.8-0.5-1c-0.3-0.2-0.8-0.3-1.4-0.3h-2.5v2.6h2.5c0.7,0,1.2-0.1,1.5-0.3
			C216.8,14.9,216.9,14.5,216.9,14z M217.2,17.5c0-0.9-0.7-1.4-2.2-1.4h-2.5v3.1h2.6C216.5,19.2,217.2,18.6,217.2,17.5z"/>
		<path class="st0" d="M219.9,19.8H219l2.3-3.3c-0.7-0.1-1.2-0.4-1.5-0.7c-0.3-0.4-0.5-0.8-0.5-1.4c0-0.7,0.2-1.3,0.7-1.7
			c0.5-0.4,1.1-0.6,1.9-0.6h3.2v7.7h-0.7v-3.2H222L219.9,19.8z M220.1,14.4c0,0.5,0.2,0.9,0.5,1.2c0.3,0.3,0.9,0.4,1.6,0.4h2.3v-3.1
			h-2.5c-0.6,0-1,0.1-1.4,0.4C220.2,13.5,220.1,13.9,220.1,14.4z"/>
		<path class="st0" d="M229.1,15.5c1.4,0,2.1-0.5,2.1-1.4c0-0.5-0.2-0.8-0.5-1.1c-0.3-0.2-0.8-0.4-1.4-0.4c-0.4,0-0.7,0-1.1,0.1
			c-0.3,0.1-0.7,0.2-1.1,0.4l-0.3-0.6c0.8-0.4,1.6-0.6,2.4-0.6c0.8,0,1.5,0.2,1.9,0.5c0.4,0.4,0.7,0.8,0.7,1.5
			c0,0.9-0.5,1.5-1.4,1.7v0c0.6,0.1,1,0.4,1.2,0.7c0.3,0.3,0.4,0.7,0.4,1.3c0,0.7-0.3,1.3-0.8,1.7c-0.5,0.4-1.2,0.6-2.2,0.6
			c-0.5,0-1,0-1.4-0.1c-0.4-0.1-0.8-0.2-1-0.4v-0.7c0.5,0.2,0.9,0.4,1.3,0.5c0.4,0.1,0.7,0.1,1.1,0.1c0.7,0,1.2-0.1,1.6-0.4
			c0.4-0.3,0.6-0.7,0.6-1.3c0-0.5-0.2-0.9-0.6-1.2c-0.4-0.3-0.9-0.4-1.7-0.4h-1.1v-0.6H229.1z"/>
		<path class="st0" d="M234.9,12.1v5.6l0,1.5l4.6-7h0.9v7.7h-0.7v-5.5l0-1.5l-4.6,7h-0.9v-7.7H234.9z"/>
	</g>
</g>
</svg>
