<?xml version="1.0" encoding="utf-8"?>
<!-- Generator: Adobe Illustrator 21.0.0, SVG Export Plug-In . SVG Version: 6.00 Build 0)  -->
<svg version="1.1" id="Слой_1" xmlns="http://www.w3.org/2000/svg" xmlns:xlink="http://www.w3.org/1999/xlink" x="0px" y="0px"
	 viewBox="0 0 227.2 56" style="enable-background:new 0 0 227.2 56;" xml:space="preserve">
<style type="text/css">
	.st0{fill:#FFFFFF;}
</style>
<g>
	<g>
		<g>
			<path class="st0" d="M44.6,28.3c0,3.3-1.1,6-3.4,8.2c-2.3,2.3-5,3.4-8.2,3.4c-3.2,0-5.9-1.1-8.1-3.4c-2.3-2.3-3.4-4.9-3.4-8.2
				c0-3.2,1.1-5.9,3.4-8.1c2.3-2.3,4.9-3.4,8.1-3.4c3.2,0,6,1.1,8.2,3.4C43.4,22.4,44.6,25.1,44.6,28.3z"/>
		</g>
		<g>
			<path class="st0" d="M32.1,0.7c-1.3-0.2-2.8-0.4-4.2-0.4C12.8,0.3,0.4,12.4,0.1,27.6C0,27.8,0,28,0,28.2C0,41,8.6,51.7,20.3,55
				c2.5,0.6,4.9,1,7.6,1c14,0,25.6-10.3,27.6-23.8c0.2-1.3,0.3-2.7,0.3-4.1C55.8,14.3,45.5,2.7,32.1,0.7z M44.1,39.5
				c-3.1,3-6.8,4.5-11.1,4.5c-4.3,0-8-1.5-11.1-4.6c-2.6-2.6-4.1-5.6-4.5-9h-2V42c0,0.3,0,0.6-0.1,0.8c-0.1,0.2-0.3,0.5-0.5,0.6
				c-0.1,0.2-0.4,0.4-0.6,0.5C13.8,44,13.6,44,13.3,44s-0.6,0-0.8-0.1c-0.3-0.1-0.5-0.3-0.6-0.5c-0.1,0-0.1-0.1-0.2-0.1l-0.1-0.2
				c-0.1-0.1-0.1-0.2-0.2-0.3c-0.1-0.2-0.1-0.5-0.1-0.8V14.7c0-0.3,0-0.6,0.1-0.8c0.1-0.3,0.3-0.5,0.5-0.7c0.1-0.2,0.3-0.3,0.6-0.4
				c0.2-0.1,0.5-0.2,0.8-0.2s0.5,0.1,0.8,0.2c0.2,0.1,0.5,0.2,0.6,0.4c0.2,0.2,0.4,0.4,0.5,0.7c0.1,0.2,0.1,0.5,0.1,0.8v11.5h2
				c0.4-3.4,2-6.5,4.5-9c3.1-3.1,6.8-4.6,11.1-4.6c4.3,0,8,1.5,11.1,4.6c0.4,0.5,0.8,0.9,1.1,1.4c0.4,0.3,0.6,0.7,0.9,1.1
				c0.5,0.8,1,1.6,1.3,2.6c0.8,1.8,1.1,3.8,1.1,6C48.7,32.7,47.2,36.4,44.1,39.5z"/>
		</g>
		<g>
			<path class="st0" d="M90.5,22.3c-0.8-1.9-2-3.6-3.5-5.1c-3.1-3.1-6.8-4.6-11.1-4.6c-4.3,0-8,1.5-11.1,4.6
				c-3.1,3.1-4.6,6.8-4.6,11.1c0,4.4,1.5,8.1,4.6,11.2c3.1,3,6.8,4.5,11.1,4.5c4.3,0,8-1.5,11.1-4.5c3.1-3.1,4.6-6.8,4.6-11.2
				C91.6,26.1,91.2,24.2,90.5,22.3z M84.1,36.5c-2.3,2.3-5.1,3.4-8.2,3.4s-5.9-1.1-8.1-3.4c-2.3-2.3-3.4-5-3.4-8.2
				c0-1.5,0.2-3.1,0.8-4.4c0.5-1.3,1.3-2.6,2.6-3.7c1.1-1.1,2.4-2,3.7-2.6c1.3-0.5,2.8-0.8,4.4-0.8c3.2,0,6,1.1,8.2,3.4
				c2.2,2.3,3.3,4.9,3.3,8.1S86.2,34.3,84.1,36.5z M116.4,13.2c-0.4-0.4-0.8-0.6-1.4-0.6c-0.6,0-1.1,0.2-1.4,0.6
				c-0.4,0.4-0.6,0.9-0.6,1.5v11.5H98.8V14.7c0-0.6-0.2-1.1-0.6-1.5c-0.4-0.4-0.8-0.6-1.4-0.6c-0.6,0-1,0.2-1.4,0.6
				c-0.4,0.4-0.6,0.9-0.6,1.5V42c0,0.6,0.2,1,0.6,1.4c0.4,0.4,0.8,0.6,1.4,0.6c0.6,0,1-0.2,1.4-0.6s0.6-0.8,0.6-1.4V30.5h14.1V42
				c0,0.6,0.2,1,0.6,1.4c0.3,0.4,0.8,0.6,1.4,0.6c0.6,0,1-0.2,1.4-0.6c0.4-0.4,0.6-0.8,0.6-1.4V14.7C117,14.1,116.8,13.6,116.4,13.2
				z M145.1,41.2l-10.6-27.1c-0.4-1-1-1.5-2-1.5c-0.9,0-1.5,0.5-2,1.5L120,41.2c-0.1,0.3-0.1,0.5-0.1,0.8s0,0.6,0.1,0.8
				c0.1,0.2,0.3,0.5,0.4,0.6c0.2,0.2,0.4,0.4,0.7,0.5c0.2,0.1,0.5,0.1,0.8,0.1c0.8,0,1.5-0.4,2-1.2l8.6-22.3l8.7,22.3
				c0.4,0.8,1,1.2,1.9,1.2c0.3,0,0.6,0,0.8-0.1c0.3-0.1,0.5-0.3,0.7-0.5c0.2-0.1,0.3-0.4,0.4-0.6c0.1-0.2,0.2-0.5,0.2-0.8
				S145.2,41.4,145.1,41.2z M173.4,41.2L162.9,14c-0.4-0.9-1.1-1.4-2-1.4c-0.9,0-1.5,0.5-2,1.4L148.4,41c-0.1,0.3-0.2,0.6-0.2,0.9
				c0,0.6,0.2,1,0.6,1.4c0.4,0.4,0.8,0.6,1.5,0.6c0.6,0,1-0.2,1.4-0.6c0.2-0.2,0.4-0.4,0.5-0.6l3.6-9.4h10.1l3.7,9.4
				c0.1,0.2,0.2,0.4,0.4,0.6c0.4,0.4,0.9,0.6,1.4,0.6c0.6,0,1.1-0.2,1.5-0.6c0.4-0.4,0.6-0.8,0.6-1.4
				C173.6,41.7,173.5,41.4,173.4,41.2z M157.5,29.3l3.4-8.9l3.5,8.9H157.5z M201.7,13.9c-0.1-0.3-0.3-0.5-0.5-0.7
				c-0.2-0.2-0.4-0.3-0.6-0.4c-0.2-0.1-0.5-0.2-0.8-0.2c-0.6,0-1.1,0.3-1.7,0.8l-17.5,22.5V14.7c0-0.6-0.2-1.1-0.6-1.5
				c-0.4-0.4-0.9-0.6-1.5-0.6c-0.5,0-1,0.2-1.4,0.6c-0.4,0.4-0.6,0.9-0.6,1.5V42c0,0.3,0.1,0.6,0.2,0.8c0.1,0.2,0.2,0.5,0.4,0.6
				c0.2,0.2,0.4,0.4,0.6,0.5c0.3,0.1,0.6,0.1,0.8,0.1c0.6,0,1.1-0.2,1.6-0.7l17.5-22.5V42c0,0.6,0.2,1,0.6,1.4
				c0.4,0.4,0.9,0.6,1.5,0.6c0.5,0,1-0.2,1.4-0.6c0.4-0.4,0.6-0.8,0.6-1.4V14.7C201.8,14.4,201.8,14.1,201.7,13.9z M195.1,3.8
				c-0.4-0.4-0.9-0.6-1.5-0.6c-0.5,0-1,0.2-1.4,0.6c-0.3,0.3-0.5,0.6-0.5,1c-0.1,0.3-0.3,0.6-0.7,0.9c-0.5,0.3-1.1,0.4-1.8,0.4
				c-0.7,0-1.3-0.1-1.8-0.4c-0.5-0.3-0.7-0.6-0.8-0.9c0-0.4-0.2-0.7-0.5-1c-0.4-0.4-0.8-0.6-1.4-0.6s-1.1,0.2-1.5,0.6
				c-0.3,0.4-0.5,0.8-0.5,1.4c0,0.7,0.2,1.3,0.5,2c0.3,0.6,0.8,1.1,1.4,1.6c0.5,0.4,1.2,0.8,2.1,1c0.7,0.3,1.6,0.4,2.6,0.4
				c0.8,0,1.8-0.1,2.5-0.4c0.8-0.2,1.5-0.6,2.1-1c0.6-0.5,1.1-1,1.4-1.6c0.3-0.6,0.5-1.2,0.5-2C195.6,4.6,195.4,4.2,195.1,3.8z
				 M226.6,13.2c-0.4-0.4-0.9-0.6-1.4-0.6c-0.6,0-1.1,0.2-1.5,0.6c-0.4,0.4-0.6,0.9-0.6,1.5v11.5h-14V14.7c0-0.6-0.2-1.1-0.6-1.5
				c-0.4-0.4-0.9-0.6-1.5-0.6c-0.6,0-1.1,0.2-1.5,0.6c-0.4,0.4-0.6,0.9-0.6,1.5V42c0,0.6,0.2,1,0.6,1.4c0.4,0.4,0.9,0.6,1.5,0.6
				c0.5,0,1-0.2,1.5-0.6c0.4-0.4,0.6-0.8,0.6-1.4V30.5h14V42c0,0.6,0.2,1,0.6,1.4c0.4,0.4,0.9,0.6,1.5,0.6c0.5,0,1-0.2,1.4-0.6
				c0.4-0.4,0.6-0.8,0.6-1.4V14.7C227.2,14.1,227,13.6,226.6,13.2z"/>
		</g>
	</g>
</g>
</svg>
