<?xml version="1.0" encoding="utf-8"?>
<!-- Generator: Adobe Illustrator 21.0.0, SVG Export Plug-In . SVG Version: 6.00 Build 0)  -->
<svg version="1.1" id="Слой_1" xmlns="http://www.w3.org/2000/svg" xmlns:xlink="http://www.w3.org/1999/xlink" x="0px" y="0px"
	 viewBox="0 0 32 32" style="enable-background:new 0 0 32 32;" xml:space="preserve">
<style type="text/css">
	.st0{fill:#FFFFFF;}
</style>
<g>
	<g>
		<g>
			<path class="st0" d="M3,16C3.3,8.9,8.7,3,16,3c7.1,0,13,5.9,13,13c0,7.1-5.9,13-13,13C8.7,29,3.3,23.1,3,16c-0.1-1.9-3.1-1.9-3,0
				c0.4,8.7,7,16,16,16c8.7,0,16-7.3,16-16c0-8.7-7.3-16-16-16C7,0,0.4,7.3,0,16C-0.1,17.9,2.9,17.9,3,16z"/>
		</g>
	</g>
	<g>
		<g>
			<path class="st0" d="M16.3,9c-1.9,1.9-3.8,3.8-5.8,5.8c-0.6,0.6-0.6,1.5,0,2.1c2,2,4,4,6.1,6.1c1.4,1.4,3.5-0.8,2.1-2.1
				c-2-2-4-4-6.1-6.1c0,0.7,0,1.4,0,2.1c1.9-1.9,3.8-3.8,5.8-5.8C19.8,9.8,17.7,7.6,16.3,9L16.3,9z"/>
		</g>
	</g>
</g>
</svg>
