<?xml version="1.0" encoding="utf-8"?>
<!-- Generator: Adobe Illustrator 21.1.0, SVG Export Plug-In . SVG Version: 6.00 Build 0)  -->
<svg version="1.1" id="Слой_1" xmlns="http://www.w3.org/2000/svg" xmlns:xlink="http://www.w3.org/1999/xlink" x="0px" y="0px"
	 viewBox="0 0 512 512" style="enable-background:new 0 0 512 512;" xml:space="preserve">
<style type="text/css">
	.st0{fill:#C3E086;}
</style>
<g>
	<path class="st0" d="M342.2,3.3c-2-2.1-4.8-3.3-7.7-3.3H105.7c-29.8,0.1-53.9,24.1-54,53.9v404.2c0.1,29.8,24.3,53.8,54,53.9h300.7
		c29.8-0.1,53.9-24.1,54-53.9V129.2c0-2.8-1.2-5.5-3.2-7.5L342.2,3.3z M345.3,37.4l78.7,80.9h-68c-5.9,0.1-10.7-4.7-10.7-10.5V37.4z
		 M406.3,490.5H105.7c-17.9-0.1-32.4-14.5-32.5-32.4V53.9c0.1-17.9,14.6-32.3,32.5-32.4h218.1v86.2c0,17.8,14.4,32.1,32.2,32.1h82.9
		v318.3C438.7,476,424.2,490.4,406.3,490.5z"/>
	<path class="st0" d="M376.5,410.9H128.9c-5.9,0-10.8,4.8-10.8,10.8c0,5.9,4.8,10.8,10.8,10.8h247.6c5.9,0,10.8-4.8,10.8-10.8
		C387.2,415.7,382.4,410.9,376.5,410.9z"/>
	<path class="st0" d="M128.9,374.3h148.2c5.9,0,10.8-4.8,10.8-10.8c0-5.9-4.8-10.8-10.8-10.8H128.9c-5.9,0-10.8,4.8-10.8,10.8
		C118.1,369.5,122.9,374.3,128.9,374.3z"/>
	<path class="st0" d="M130.4,245.2l15,1.4c1.8,5.7,4.1,11.2,7,16.5l-9.4,11.4c-3.5,4.3-3.2,10.5,0.7,14.5l21.3,21.3
		c3.9,3.9,10.2,4.2,14.5,0.7l11.4-9.5c5.3,2.8,10.8,5.2,16.5,7l1.4,15.1c0.5,5.5,5.1,9.8,10.7,9.9h30.2c5.6-0.1,10.2-4.3,10.7-9.9
		l1.4-15c5.7-1.8,11.2-4.1,16.5-7l11.4,9.4c4.3,3.5,10.5,3.2,14.5-0.7l21.3-21.3c3.9-3.9,4.2-10.2,0.7-14.5l-9.5-11.4
		c2.8-5.3,5.2-10.8,7-16.5l14.9-1.4c5.6-0.5,9.8-5.1,9.9-10.7v-30.2c-0.1-5.6-4.4-10.2-9.9-10.7l-15-1.4c-1.8-5.7-4.1-11.2-7-16.5
		l9.4-11.4c3.5-4.3,3.2-10.5-0.6-14.4l-21-21.3c-3.9-4-10.2-4.3-14.5-0.7l-11.4,9.5c-5.3-2.8-10.8-5.2-16.5-7l-1.4-15.1
		c-0.5-5.5-5.1-9.8-10.7-9.9h-30.2c-5.6,0.1-10.2,4.3-10.7,9.9l-1.4,15c-5.7,1.8-11.2,4.1-16.5,7l-11.4-9.4
		c-4.3-3.5-10.5-3.2-14.5,0.7l-21.3,21.3c-3.9,3.9-4.2,10.2-0.7,14.5l9.5,11.4c-2.8,5.3-5.2,10.8-7,16.5l-15.1,1.4
		c-5.6,0.5-9.8,5.1-9.9,10.7v30.2C120.6,240.1,124.9,244.7,130.4,245.2z M142,214.1l12.9-1.2c4.7-0.4,8.6-3.8,9.6-8.4
		c1.9-8.5,5.4-16.6,10.2-23.9c2.6-3.9,2.3-9.1-0.7-12.7l-8-9.7l7.4-7.4l9.7,8c3.7,3,8.9,3.3,12.8,0.7c7.2-4.8,15.3-8.2,23.8-10
		c4.6-1.1,8-4.9,8.4-9.6l1.2-12.8H240l1.2,12.8c0.4,4.7,3.8,8.5,8.4,9.6c8.5,1.9,16.6,5.4,23.9,10.2c3.9,2.6,9.1,2.3,12.7-0.7l9.7-8
		l7.3,7.4l-8.1,9.8c-3,3.7-3.3,8.9-0.7,12.8c4.8,7.2,8.2,15.3,10,23.8c1.1,4.6,5,8,9.7,8.4l12.9,1.2v10.7l-12.6,1.2
		c-4.7,0.4-8.5,3.8-9.6,8.4c-1.9,8.5-5.4,16.6-10.2,23.9c-2.6,3.9-2.3,9.1,0.7,12.7l8,9.7l-7.4,7.4l-9.7-8c-3.7-3-8.9-3.3-12.8-0.7
		c-7.2,4.8-15.3,8.2-23.8,10c-4.6,1.1-8,4.9-8.4,9.6l-1.2,12.8h-10.6l-1.2-12.8c-0.4-4.7-3.8-8.5-8.4-9.6
		c-8.5-1.9-16.6-5.4-23.9-10.2c-3.9-2.5-9.1-2.3-12.7,0.7l-9.7,8l-7.4-7.4l8-9.7c3-3.7,3.3-8.9,0.7-12.8c-4.8-7.2-8.2-15.3-10-23.8
		c-1.1-4.6-5-8-9.7-8.4l-12.9-1.2v-10.8H142z"/>
	<path class="st0" d="M234.6,266.3c25.9,0,46.9-21,46.9-46.9s-21-46.9-46.9-46.9s-46.9,21-46.9,46.9S208.7,266.3,234.6,266.3z
		 M234.6,194c14,0,25.4,11.4,25.4,25.4s-11.4,25.4-25.4,25.4s-25.4-11.4-25.4-25.4C209.2,205.4,220.6,194,234.6,194z"/>
</g>
</svg>
