<?xml version="1.0" encoding="utf-8"?>
<!-- Generator: Adobe Illustrator 21.0.0, SVG Export Plug-In . SVG Version: 6.00 Build 0)  -->
<svg version="1.1" id="Слой_1" xmlns="http://www.w3.org/2000/svg" xmlns:xlink="http://www.w3.org/1999/xlink" x="0px" y="0px"
	 viewBox="0 0 18 31.8" style="enable-background:new 0 0 18 31.8;" xml:space="preserve">
<style type="text/css">
	.st0{fill:#FFFFFF;}
</style>
<g>
	<path class="st0" d="M15.7,0H2.3C1.1,0,0,1,0,2.3v27.1c0,1.3,1,2.3,2.3,2.3h13.3c1.3,0,2.3-1,2.3-2.3V2.3C18,1,17,0,15.7,0z
		 M1.1,4.2h15.9v20.1H1.1V4.2z M2.3,1.1h13.3c0.7,0,1.3,0.6,1.3,1.3v0.8H1.1V2.3C1.1,1.6,1.6,1.1,2.3,1.1z M15.7,30.7H2.3
		c-0.7,0-1.3-0.6-1.3-1.3v-4h15.9v4C16.9,30.1,16.4,30.7,15.7,30.7z"/>
	<path class="st0" d="M9,25.9c-1.2,0-2.1,0.9-2.1,2.1c0,1.2,0.9,2.1,2.1,2.1s2.1-0.9,2.1-2.1C11.1,26.9,10.2,25.9,9,25.9z M9,29.1
		c-0.6,0-1.1-0.5-1.1-1.1S8.4,27,9,27c0.6,0,1.1,0.5,1.1,1.1S9.6,29.1,9,29.1z"/>
	<path class="st0" d="M6.9,2.6H9c0.3,0,0.5-0.2,0.5-0.5S9.3,1.6,9,1.6H6.9c-0.3,0-0.5,0.2-0.5,0.5S6.6,2.6,6.9,2.6z"/>
	<path class="st0" d="M10.6,2.6h0.5c0.3,0,0.5-0.2,0.5-0.5s-0.2-0.5-0.5-0.5h-0.5c-0.3,0-0.5,0.2-0.5,0.5S10.3,2.6,10.6,2.6z"/>
</g>
</svg>
