<?xml version="1.0" encoding="utf-8"?>
<!-- Generator: Adobe Illustrator 21.1.0, SVG Export Plug-In . SVG Version: 6.00 Build 0)  -->
<svg version="1.1" id="Capa_1" xmlns="http://www.w3.org/2000/svg" xmlns:xlink="http://www.w3.org/1999/xlink" x="0px" y="0px"
	 viewBox="0 0 512 512" style="enable-background:new 0 0 512 512;" xml:space="preserve" width="244px" height="203px">
<style type="text/css">
	.st0{fill:#FFFFFF;}
</style>
<g>
	<path class="st0" d="M16.3,231.8l25.6,12c-6.5,3.9-9.5,11.9-6.8,19.2L57,323.1c1.5,4,4.4,7.2,8.3,9c2.1,1,4.4,1.5,6.7,1.5
		c1.8,0,3.7-0.3,5.5-1l15.8-5.8c7.3,11.9,20.4,19.1,34.1,19.1c4.5,0,9.1-0.8,13.6-2.4l137.7-50.1c7.6,12.8,20.4,21,34.4,23
		l24.6,67.5c8,22.1,29.2,36.9,52.7,36.9H464v24c0,13.2,10.8,24,24,24h16c4.4,0,8-3.6,8-8v-128c0-4.4-3.6-8-8-8h-16
		c-13.2,0-24,10.8-24,24v24h-73.5c-3.4,0-6.4-2.1-7.6-5.3l-25.1-69c8.1-10.3,11.9-23.8,9.6-37.4l117.8-42.8
		c20.7-7.5,31.5-30.5,23.9-51.3l-24.6-67.7c0,0,0,0,0,0l-10.9-30.1C466,48.7,443,38,422.3,45.5L18,192.5C2.8,198,0.2,206.7,0,211.4
		C-0.2,216.1,1.7,224.9,16.3,231.8z M480,348.9c0-4.4,3.6-8,8-8h8v112h-8c-4.4,0-8-3.6-8-8V348.9z M330,315.9
		c2.2-0.5,4.3-1.1,6.4-1.9c3-1.1,5.8-2.4,8.5-4l23,63.1c3.4,9.5,12.5,15.8,22.6,15.8H464v16h-73.5c-16.8,0-31.9-10.6-37.7-26.4
		L330,315.9z M294.2,287.9l57.8-21c0.6,8.9-2.6,17.6-8.5,23.9c-0.4,0.3-0.7,0.6-1,1c-3.2,3.1-7.1,5.6-11.5,7.2
		c-3.8,1.4-7.7,2-11.5,2c-0.2,0-0.4,0-0.6,0C309.2,300.6,300,295.9,294.2,287.9z M62.1,253.1l4.2,2l20.8,57l-15,5.5l-21.9-60.2
		L62.1,253.1z M16,212.1c0.4-0.7,2.3-2.7,7.4-4.5l404.3-147c12.4-4.5,26.2,1.9,30.8,14.3l8.2,22.5c0,0,0,0,0,0l2.7,7.5
		c4.5,12.4-1.9,26.2-14.3,30.8l-7.5,2.7c-4.2,1.5-6.3,6.1-4.8,10.3c1.5,4.2,6.1,6.3,10.3,4.8l7.5-2.7c8.5-3.1,15.2-8.7,19.8-15.7
		l13.7,37.6c4.5,12.4-1.9,26.2-14.3,30.8L135.6,328.5c-12.4,4.5-26.2-1.9-30.8-14.3l-18.2-49.9c9.4,3.3,20.7,5,31.7,5
		c10.1,0,20.1-1.4,28.1-4.4l231.4-84.1c4.2-1.5,6.3-6.1,4.8-10.3c-1.5-4.2-6.1-6.3-10.3-4.8L141,249.9c-14.6,5.3-38.9,4.3-53-2.3
		l-12-5.6c0,0,0,0,0,0l-10.2-4.8c0,0,0,0,0,0L23,217.3C18.1,215,16.4,212.8,16,212.1z"/>
	<path class="st0" d="M397.7,165.1c1.2,3.2,4.2,5.3,7.5,5.3c0.9,0,1.8-0.2,2.7-0.5l15-5.5c4.2-1.5,6.3-6.1,4.8-10.3
		c-1.5-4.2-6.1-6.3-10.3-4.8l-15,5.5C398.4,156.4,396.2,161,397.7,165.1z"/>
</g>
</svg>
