<?xml version="1.0" encoding="utf-8"?>
<!-- Generator: Adobe Illustrator 21.1.0, SVG Export Plug-In . SVG Version: 6.00 Build 0)  -->
<svg version="1.1" id="Capa_1" xmlns="http://www.w3.org/2000/svg" xmlns:xlink="http://www.w3.org/1999/xlink" x="0px" y="0px"
	 viewBox="0 0 512 512" style="enable-background:new 0 0 512 512;" xml:space="preserve" width="229px" height="229px">
<style type="text/css">
	.st0{fill:#FFFFFF;}
</style>
<g>
	<g>
		<g>
			<circle class="st0" cx="301.7" cy="78.7" r="8.2"/>
		</g>
	</g>
	<g>
		<g>
			<circle class="st0" cx="301.7" cy="99.1" r="8.2"/>
		</g>
	</g>
	<g>
		<g>
			<circle class="st0" cx="301.7" cy="119.4" r="8.2"/>
		</g>
	</g>
	<g>
		<g>
			<path class="st0" d="M374.5,71.2h-45.4c-4.1,0-7.5,3.4-7.5,7.5s3.4,7.5,7.5,7.5h45.4c4.1,0,7.5-3.4,7.5-7.5
				S378.6,71.2,374.5,71.2z"/>
		</g>
	</g>
	<g>
		<g>
			<path class="st0" d="M374.5,91.6h-45.4c-4.1,0-7.5,3.4-7.5,7.5s3.4,7.5,7.5,7.5h45.4c4.1,0,7.5-3.4,7.5-7.5
				S378.6,91.6,374.5,91.6z"/>
		</g>
	</g>
	<g>
		<g>
			<path class="st0" d="M374.5,112h-45.4c-4.1,0-7.5,3.4-7.5,7.5s3.4,7.5,7.5,7.5h45.4c4.1,0,7.5-3.4,7.5-7.5
				C382,115.4,378.6,112,374.5,112z"/>
		</g>
	</g>
	<g>
		<g>
			<circle class="st0" cx="142.7" cy="78.7" r="8.2"/>
		</g>
	</g>
	<g>
		<g>
			<circle class="st0" cx="142.7" cy="99.1" r="8.2"/>
		</g>
	</g>
	<g>
		<g>
			<circle class="st0" cx="142.7" cy="119.4" r="8.2"/>
		</g>
	</g>
	<g>
		<g>
			<path class="st0" d="M215.5,71.2h-45.4c-4.1,0-7.5,3.4-7.5,7.5s3.4,7.5,7.5,7.5h45.4c4.1,0,7.5-3.4,7.5-7.5
				S219.6,71.2,215.5,71.2z"/>
		</g>
	</g>
	<g>
		<g>
			<path class="st0" d="M215.5,91.6h-45.4c-4.1,0-7.5,3.4-7.5,7.5s3.4,7.5,7.5,7.5h45.4c4.1,0,7.5-3.4,7.5-7.5
				S219.6,91.6,215.5,91.6z"/>
		</g>
	</g>
	<g>
		<g>
			<path class="st0" d="M215.5,112h-45.4c-4.1,0-7.5,3.4-7.5,7.5s3.4,7.5,7.5,7.5h45.4c4.1,0,7.5-3.4,7.5-7.5
				C223,115.4,219.6,112,215.5,112z"/>
		</g>
	</g>
	<g>
		<g>
			<path class="st0" d="M484.5,378.7c-12.6,0-23.2,8.5-26.5,20h-70.9v-51.2H409c21.8,0,39.5-17.7,39.5-39.4
				c0-21.7-17.7-39.4-39.5-39.4V7.5c0-4.1-3.4-7.5-7.5-7.5h-130c-4.1,0-7.5,3.4-7.5,7.5v182.6c-4.4-2.4-9.1-4.3-14-5.6V7.5
				c0-4.1-3.4-7.5-7.5-7.5h-130c-4.1,0-7.5,3.4-7.5,7.5v152c0,4.1,3.4,7.5,7.5,7.5s7.5-3.4,7.5-7.5v-3.9h115v26.9
				c-0.2,0-0.3,0-0.5,0c-30.3,0-55.5,21.9-60.7,50.7c-5.7-2.5-12-3.9-18.3-3.9c-14.4,0-27.2,6.7-35.5,17.2V192
				c0-4.1-3.4-7.5-7.5-7.5s-7.5,3.4-7.5,7.5v76.7c-0.7,0-1.3-0.1-2-0.1c-21.8,0-39.5,17.7-39.5,39.4s17.7,39.4,39.5,39.4h21.8v51.2
				H54c-3.3-11.5-13.9-20-26.5-20C12.3,378.7,0,391.1,0,406.2s12.3,27.5,27.5,27.5c12.6,0,23.2-8.5,26.5-20h78.4
				c4.1,0,7.5-3.4,7.5-7.5v-58.7H172v4.3c0,4.1,3.4,7.5,7.5,7.5s7.5-3.4,7.5-7.5v-4.3h61.5v71c-11.5,3.3-20,13.9-20,26.5
				c0,15.2,12.3,27.5,27.5,27.5s27.5-12.3,27.5-27.5c0-12.6-8.5-23.2-20-26.5v-71H325V458c-11.5,3.3-20,13.9-20,26.5
				c0,15.2,12.3,27.5,27.5,27.5s27.5-12.3,27.5-27.5c0-12.6-8.5-23.2-20-26.5V347.5h32.2v58.7c0,4.1,3.4,7.5,7.5,7.5H458
				c3.3,11.5,13.9,20,26.5,20c15.2,0,27.5-12.3,27.5-27.5C512,391.1,499.7,378.7,484.5,378.7z M27.5,418.7
				c-6.9,0-12.5-5.6-12.5-12.5s5.6-12.5,12.5-12.5S40,399.3,40,406.2S34.4,418.7,27.5,418.7z M279,15h115v27.6H279V15z M279,155.6
				h72.8c4.1,0,7.5-3.4,7.5-7.5s-3.4-7.5-7.5-7.5H279v-83h115v83h-9.8c-4.1,0-7.5,3.4-7.5,7.5s3.4,7.5,7.5,7.5h9.8v113
				c-5-13.2-17.7-22.6-32.7-22.6c-0.7,0-1.4,0-2.1,0.1c0-0.7,0-1.4,0-2c0-24-19.6-43.5-43.6-43.5c-10.8,0-21,3.9-28.9,10.9
				c-2.2-3.6-4.8-6.8-7.7-9.8V155.6z M120,15h115v27.6H120V15z M120,140.6v-83h115v83H120z M268.5,445c0,6.9-5.6,12.5-12.5,12.5
				s-12.5-5.6-12.5-12.5s5.6-12.5,12.5-12.5S268.5,438.1,268.5,445z M345,484.5c0,6.9-5.6,12.5-12.5,12.5s-12.5-5.6-12.5-12.5
				s5.6-12.5,12.5-12.5S345,477.6,345,484.5z M103,332.5c-13.5,0-24.5-11-24.5-24.4c0-13.5,11-24.4,24.5-24.4c4,0,8,1,11.5,2.9
				c2.5,1.3,5.5,1.2,7.9-0.5s3.5-4.4,3.1-7.2c-0.2-1.4-0.3-2.9-0.3-4.3c0-16.6,13.6-30.2,30.3-30.2c7.4,0,14.5,2.7,20,7.5
				c0,0,0,0,0,0c6.5,5.7,10.3,14,10.3,22.6c0,7.4-2.7,14.4-7.6,20c-2.7,3.1-2.5,7.8,0.6,10.6c1.4,1.3,3.2,1.9,5,1.9
				c2.1,0,4.1-0.9,5.6-2.5c7.3-8.3,11.3-18.9,11.3-29.9c0-11.8-4.7-23.1-12.9-31.5c0.6-25.2,21.2-45.5,46.6-45.5
				c18.1,0,34.6,10.6,42.2,26.8c-3.1,6.1-4.7,12.8-4.7,19.7c0,14.9,7.5,28.6,20.1,36.6c1.3,0.8,2.7,1.2,4,1.2c2.5,0,4.9-1.2,6.3-3.5
				c2.2-3.5,1.2-8.1-2.3-10.4c-8.2-5.3-13.2-14.3-13.2-24c0-5.4,1.5-10.7,4.4-15.2c0,0,0,0,0,0c5.3-8.3,14.3-13.3,24.2-13.3
				c15.8,0,28.6,12.8,28.6,28.5c0,3.3-0.6,6.5-1.6,9.6c-1,2.9-0.2,6,2,8.1c2.2,2,5.5,2.5,8.2,1.2c2.6-1.3,5.5-1.9,8.5-1.9
				c11,0,19.9,8.9,19.9,19.8c0,0.7,0,1.3-0.1,1.9c-0.3,3,1.2,5.9,3.9,7.4s6,1.1,8.3-0.8c4.4-3.6,9.9-5.6,15.6-5.6
				c13.5,0,24.5,11,24.5,24.4s-11,24.4-24.5,24.4L103,332.5L103,332.5z M484.5,418.7c-6.9,0-12.5-5.6-12.5-12.5s5.6-12.5,12.5-12.5
				s12.5,5.6,12.5,12.5S491.4,418.7,484.5,418.7z"/>
		</g>
	</g>
	<g>
		<g>
			<path class="st0" d="M187,458v-74.2c0-4.1-3.4-7.5-7.5-7.5s-7.5,3.4-7.5,7.5V458c-11.5,3.3-20,13.9-20,26.5
				c0,15.2,12.3,27.5,27.5,27.5s27.5-12.3,27.5-27.5C207,471.9,198.5,461.3,187,458z M179.5,497c-6.9,0-12.5-5.6-12.5-12.5
				s5.6-12.5,12.5-12.5s12.5,5.6,12.5,12.5S186.4,497,179.5,497z"/>
		</g>
	</g>
</g>
</svg>
