<?xml version="1.0" encoding="utf-8"?>
<!-- Generator: Adobe Illustrator 21.1.0, SVG Export Plug-In . SVG Version: 6.00 Build 0)  -->
<svg version="1.1" id="Capa_1" xmlns="http://www.w3.org/2000/svg" xmlns:xlink="http://www.w3.org/1999/xlink" x="0px" y="0px"
	 viewBox="0 0 512 512" style="enable-background:new 0 0 512 512;" xml:space="preserve" width="236px" height="236px">
<style type="text/css">
	.st0{fill:#FFFFFF;}
</style>
<g>
	<path class="st0" d="M179.2,460.8h-68.3c-4.7,0-8.5,3.8-8.5,8.5s3.8,8.5,8.5,8.5h68.3c4.7,0,8.5-3.8,8.5-8.5
		S183.9,460.8,179.2,460.8z"/>
	<path class="st0" d="M76.8,460.8H42.7c-4.7,0-8.5,3.8-8.5,8.5s3.8,8.5,8.5,8.5h34.1c4.7,0,8.5-3.8,8.5-8.5S81.5,460.8,76.8,460.8z"
		/>
	<path class="st0" d="M213.3,324.3H8.5c-4.7,0-8.5,3.8-8.5,8.5v68.3c0,4.7,3.8,8.5,8.5,8.5h8.5v17.1H8.5c-4.7,0-8.5,3.8-8.5,8.5
		v68.3c0,4.7,3.8,8.5,8.5,8.5h204.8c4.7,0,8.5-3.8,8.5-8.5v-68.3c0-4.7-3.8-8.5-8.5-8.5h-8.5v-17.1h8.5c4.7,0,8.5-3.8,8.5-8.5v-68.3
		C221.9,328.1,218,324.3,213.3,324.3z M17.1,341.3h187.7v51.2h-8.5H25.6h-8.5V341.3z M204.8,494.9H17.1v-51.2h8.5h170.7h8.5V494.9z
		 M187.7,426.7H34.1v-17.1h153.6V426.7z"/>
	<path class="st0" d="M51.2,375.5h17.1c4.7,0,8.5-3.8,8.5-8.5s-3.8-8.5-8.5-8.5H51.2c-4.7,0-8.5,3.8-8.5,8.5S46.5,375.5,51.2,375.5z
		"/>
	<path class="st0" d="M102.4,375.5h17.1c4.7,0,8.5-3.8,8.5-8.5s-3.8-8.5-8.5-8.5h-17.1c-4.7,0-8.5,3.8-8.5,8.5
		S97.7,375.5,102.4,375.5z"/>
	<path class="st0" d="M153.6,375.5h17.1c4.7,0,8.5-3.8,8.5-8.5s-3.8-8.5-8.5-8.5h-17.1c-4.7,0-8.5,3.8-8.5,8.5
		S148.9,375.5,153.6,375.5z"/>
	<path class="st0" d="M469.3,460.8h-68.3c-4.7,0-8.5,3.8-8.5,8.5s3.8,8.5,8.5,8.5h68.3c4.7,0,8.5-3.8,8.5-8.5S474,460.8,469.3,460.8
		z"/>
	<path class="st0" d="M366.9,460.8h-34.1c-4.7,0-8.5,3.8-8.5,8.5s3.8,8.5,8.5,8.5h34.1c4.7,0,8.5-3.8,8.5-8.5
		S371.6,460.8,366.9,460.8z"/>
	<path class="st0" d="M503.5,409.6c4.7,0,8.5-3.8,8.5-8.5v-68.3c0-4.7-3.8-8.5-8.5-8.5H298.7c-4.7,0-8.5,3.8-8.5,8.5v68.3
		c0,4.7,3.8,8.5,8.5,8.5h8.5v17.1h-8.5c-4.7,0-8.5,3.8-8.5,8.5v68.3c0,4.7,3.8,8.5,8.5,8.5h204.8c4.7,0,8.5-3.8,8.5-8.5v-68.3
		c0-4.7-3.8-8.5-8.5-8.5h-8.5v-17.1H503.5z M307.2,341.3h187.7v51.2h-8.5H315.7h-8.5V341.3z M494.9,494.9H307.2v-51.2h8.5h170.7h8.5
		V494.9z M477.9,426.7H324.3v-17.1h153.6V426.7z"/>
	<path class="st0" d="M341.3,375.5h17.1c4.7,0,8.5-3.8,8.5-8.5s-3.8-8.5-8.5-8.5h-17.1c-4.7,0-8.5,3.8-8.5,8.5
		S336.6,375.5,341.3,375.5z"/>
	<path class="st0" d="M392.5,375.5h17.1c4.7,0,8.5-3.8,8.5-8.5s-3.8-8.5-8.5-8.5h-17.1c-4.7,0-8.5,3.8-8.5,8.5
		S387.8,375.5,392.5,375.5z"/>
	<path class="st0" d="M443.7,375.5h17.1c4.7,0,8.5-3.8,8.5-8.5s-3.8-8.5-8.5-8.5h-17.1c-4.7,0-8.5,3.8-8.5,8.5
		S439,375.5,443.7,375.5z"/>
	<path class="st0" d="M153.6,187.7h204.8c4.7,0,8.5-3.8,8.5-8.5v-68.3c0-4.7-3.8-8.5-8.5-8.5h-8.5V85.3h8.5c4.7,0,8.5-3.8,8.5-8.5
		V8.5c0-4.7-3.8-8.5-8.5-8.5H153.6c-4.7,0-8.5,3.8-8.5,8.5v68.3c0,4.7,3.8,8.5,8.5,8.5h8.5v17.1h-8.5c-4.7,0-8.5,3.8-8.5,8.5v68.3
		C145.1,183.9,148.9,187.7,153.6,187.7z M162.1,17.1h187.7v51.2h-8.5H170.7h-8.5V17.1z M179.2,85.3h153.6v17.1H179.2V85.3z
		 M162.1,119.5h187.7v51.2H162.1V119.5z"/>
	<path class="st0" d="M324.3,136.5H256c-4.7,0-8.5,3.8-8.5,8.5s3.8,8.5,8.5,8.5h68.3c4.7,0,8.5-3.8,8.5-8.5
		C332.8,140.3,329,136.5,324.3,136.5z"/>
	<path class="st0" d="M221.9,136.5h-34.1c-4.7,0-8.5,3.8-8.5,8.5s3.8,8.5,8.5,8.5h34.1c4.7,0,8.5-3.8,8.5-8.5
		S226.6,136.5,221.9,136.5z"/>
	<path class="st0" d="M196.3,51.2h17.1c4.7,0,8.5-3.8,8.5-8.5s-3.8-8.5-8.5-8.5h-17.1c-4.7,0-8.5,3.8-8.5,8.5S191.6,51.2,196.3,51.2
		z"/>
	<path class="st0" d="M247.5,51.2h17.1c4.7,0,8.5-3.8,8.5-8.5s-3.8-8.5-8.5-8.5h-17.1c-4.7,0-8.5,3.8-8.5,8.5S242.8,51.2,247.5,51.2
		z"/>
	<path class="st0" d="M298.7,51.2h17.1c4.7,0,8.5-3.8,8.5-8.5s-3.8-8.5-8.5-8.5h-17.1c-4.7,0-8.5,3.8-8.5,8.5S294,51.2,298.7,51.2z"
		/>
	<path class="st0" d="M392.5,273.1v17.1c0,4.7,3.8,8.5,8.5,8.5c4.7,0,8.5-3.8,8.5-8.5v-17.1c0-18.8-15.3-34.1-34.1-34.1H264.5v-17.1
		c0-4.7-3.8-8.5-8.5-8.5s-8.5,3.8-8.5,8.5v17.1H136.5c-18.8,0-34.1,15.3-34.1,34.1v17.1c0,4.7,3.8,8.5,8.5,8.5
		c4.7,0,8.5-3.8,8.5-8.5v-17.1c0-9.4,7.7-17.1,17.1-17.1h238.9C384.9,256,392.5,263.7,392.5,273.1z"/>
</g>
</svg>
