<?xml version="1.0" encoding="utf-8"?>
<!-- Generator: Adobe Illustrator 21.1.0, SVG Export Plug-In . SVG Version: 6.00 Build 0)  -->
<svg version="1.1" id="Capa_1" xmlns="http://www.w3.org/2000/svg" xmlns:xlink="http://www.w3.org/1999/xlink" x="0px" y="0px"
	 viewBox="0 0 512 512" style="enable-background:new 0 0 512 512;" xml:space="preserve" width="231px" height="227px">
<style type="text/css">
	.st0{fill:#FFFFFF;}
</style>
<g>
	<g>
		<g>
			<path class="st0" d="M256,7.7c-38.8,0-70.5,31.7-70.5,70.6s31.6,70.6,70.5,70.6s70.5-31.7,70.5-70.6S294.9,7.7,256,7.7z
				 M256,129.3c-28.1,0-50.9-22.9-50.9-51s22.8-51,50.9-51s50.9,22.9,50.9,51S284.1,129.3,256,129.3z"/>
		</g>
	</g>
	<g>
		<g>
			<path class="st0" d="M471.3,328.9c-16.3-9.4-35.3-11.9-53.5-7.1c-18.2,4.9-33.4,16.6-42.8,32.9c-19.4,33.7-7.9,76.9,25.8,96.4
				c11.1,6.4,23.2,9.4,35.1,9.4c24.4,0,48.1-12.7,61.1-35.3C516.5,391.6,504.9,348.4,471.3,328.9z M480.1,415.5
				c-14,24.3-45.2,32.7-69.5,18.7c-24.3-14.1-32.6-45.3-18.6-69.6c6.8-11.8,17.8-20.2,30.9-23.7c4.4-1.2,8.8-1.8,13.2-1.8
				c8.8,0,17.5,2.3,25.4,6.9C485.8,359.9,494.2,391.2,480.1,415.5z"/>
		</g>
	</g>
	<g>
		<g>
			<path class="st0" d="M48.6,275.7C48.6,275.7,48.6,275.7,48.6,275.7c-5.4,0-9.8,4.4-9.8,9.8v0.5c0,5.4,4.4,9.8,9.8,9.8
				s9.8-4.4,9.8-9.8v-0.5C58.4,280.1,54,275.7,48.6,275.7z"/>
		</g>
	</g>
	<g>
		<g>
			<path class="st0" d="M177.1,93.6c-2.3-4.9-8.1-7-13-4.7C99,119.3,53.2,179.8,41.7,250.6c-0.9,5.3,2.7,10.4,8.1,11.3
				c0.5,0.1,1.1,0.1,1.6,0.1c4.7,0,8.9-3.4,9.6-8.2c10.5-64.4,52.2-119.4,111.4-147.2C177.3,104.3,179.4,98.5,177.1,93.6z"/>
		</g>
	</g>
	<g>
		<g>
			<path class="st0" d="M391.3,116c-4.2-3.4-10.4-2.7-13.8,1.5c-3.4,4.2-2.7,10.4,1.5,13.8c47.3,37.8,74.4,94.2,74.4,154.7
				c0,5.4,4.4,9.8,9.8,9.8c5.4,0,9.8-4.4,9.8-9.8C473,219.5,443.2,157.5,391.3,116z"/>
		</g>
	</g>
	<g>
		<g>
			<path class="st0" d="M372.3,459c-2.8-4.6-8.8-6.1-13.5-3.2c-30.9,18.9-66.5,28.9-102.9,28.9c-35.9,0-71-9.7-101.6-28.1
				c-4.6-2.8-10.6-1.3-13.4,3.4c-2.8,4.6-1.3,10.7,3.4,13.5c33.6,20.2,72.2,30.9,111.6,30.9c40,0,79.1-11,113.1-31.8
				C373.6,469.6,375.1,463.6,372.3,459z"/>
		</g>
	</g>
	<g>
		<g>
			<path class="st0" d="M137,354.5c-9.4-16.3-24.6-28-42.8-32.9c-18.2-4.9-37.2-2.4-53.5,7.1c-16.3,9.4-28,24.6-32.8,42.9
				c-4.9,18.2-2.4,37.2,7,53.6c13,22.6,36.8,35.3,61.1,35.3c11.9,0,24-3,35.1-9.4C144.8,431.5,156.4,388.2,137,354.5z M101.4,433.9
				c-24.3,14.1-55.5,5.7-69.5-18.7c-6.8-11.8-8.6-25.5-5.1-38.7c3.5-13.2,11.9-24.1,23.7-30.9c7.8-4.5,16.5-6.8,25.4-6.8
				c4.4,0,8.9,0.6,13.2,1.8c13.1,3.5,24.1,12,30.9,23.7C134.1,388.6,125.7,419.9,101.4,433.9z"/>
		</g>
	</g>
	<g>
		<g>
			<ellipse class="st0" cx="354.5" cy="103.2" rx="9.8" ry="9.8"/>
		</g>
	</g>
	<g>
		<g>
			<path class="st0" d="M341.8,330.7l-32-32.1c-5.2-5.2-12-8-19.3-8c-7.3,0-14.1,2.8-19.3,8l-2.1,2.1c-1,1-2.1,1.1-2.6,1.1
				s-1.7-0.1-2.6-1.1l-22.9-23c-1-1-1.1-2.1-1.1-2.6c0-0.6,0.1-1.7,1.1-2.6l2.1-2.1c10.6-10.7,10.6-28,0-38.7l-32-32.1
				c-10.6-10.7-28-10.7-38.6,0l-7.7,7.7c-24.6,24.7-24.6,64.9,0,89.5l80.1,80.3c11.9,12,27.8,18.5,44.7,18.5s32.7-6.6,44.7-18.5
				l7.7-7.7C352.5,358.7,352.5,341.4,341.8,330.7z M328,355.5l-7.7,7.7c-8.2,8.3-19.2,12.8-30.8,12.8s-22.6-4.5-30.8-12.8
				l-80.1-80.3c-17-17-17-44.8,0-61.8l7.7-7.7c1.5-1.5,3.5-2.3,5.5-2.3s4,0.8,5.5,2.3l32,32.1c3,3,3,7.9,0,10.9l-2.1,2.1
				c-9.1,9.1-9.1,23.9,0,33l22.9,23c4.4,4.4,10.3,6.8,16.5,6.8c6.2,0,12.1-2.4,16.5-6.8l2.1-2.1c3-3,7.9-3,10.9,0l32,32.1
				C331,347.6,331,352.5,328,355.5z"/>
		</g>
	</g>
	<g>
		<g>
			<path class="st0" d="M274.1,185c-5.4,0-9.8,4.4-9.8,9.8c0,5.4,4.4,9.8,9.8,9.8c34.4,0,62.4,28.1,62.4,62.5c0,5.4,4.4,9.8,9.8,9.8
				c5.4,0,9.8-4.4,9.8-9.8C356.1,221.9,319.3,185,274.1,185z"/>
		</g>
	</g>
	<g>
		<g>
			<path class="st0" d="M274.1,226.3c-5.4,0-9.8,4.4-9.8,9.8c0,5.4,4.4,9.8,9.8,9.8c11.7,0,21.2,9.5,21.2,21.2
				c0,5.4,4.4,9.8,9.8,9.8c5.4,0,9.8-4.4,9.8-9.8C314.9,244.6,296.6,226.3,274.1,226.3z"/>
		</g>
	</g>
</g>
</svg>
