<?xml version="1.0" encoding="utf-8"?>
<!-- Generator: Adobe Illustrator 21.1.0, SVG Export Plug-In . SVG Version: 6.00 Build 0)  -->
<svg version="1.1" id="Capa_1" xmlns="http://www.w3.org/2000/svg" xmlns:xlink="http://www.w3.org/1999/xlink" x="0px" y="0px"
	 viewBox="0 0 512 512" style="enable-background:new 0 0 512 512;" xml:space="preserve" width="253px" height="233px">
<style type="text/css">
	.st0{fill:#FFFFFF;}
</style>
<g>
	<g>
		<path class="st0" d="M443.5,175.4v-20l68.5-3.4v-37.2l-68.5-3.4V95.9H390v-68C390,12.5,378.4,0,364.2,0H147.8
			c-14.2,0-25.8,12.5-25.8,27.9v68H68.4v15.4L0,114.8v37.2l68.4,3.4v20h53.5v43.2H68.4V234L0,237.4v37.1l68.4,3.5v20h53.5v47.8H68.4
			v15.4L0,364.7v37.2l68.4,3.4v20h53.5v58.7c0,15.4,11.6,27.9,25.8,27.9h216.4c14.2,0,25.8-12.5,25.8-27.9v-58.7h53.5v-20l68.5-3.4
			v-37.2l-68.5-3.4v-15.4H390V298h53.5v-20l68.5-3.5v-37.1l-68.5-3.4v-15.4H390v-43.2H443.5z M498.4,378.7v9.1l-68.5,3.4v19.4h-37.8
			v-50.1H430v14.7L498.4,378.7z M430,264v19.3h-37.8v-50.1H430V248l68.5,3.4v9.1L430,264z M498.4,128.8v9.1l-68.5,3.4v19.3h-37.8
			v-50.1H430v14.7L498.4,128.8z M364.2,497.3H147.8c-6.8,0-12.2-5.9-12.2-13.2V27.9c0-7.3,5.5-13.3,12.2-13.3h216.4
			c6.7,0,12.2,5.9,12.2,13.3v456.1C376.4,491.4,371,497.3,364.2,497.3z M13.6,387.8v-9.1l68.5-3.4v-14.7h37.8v50.1H82v-19.4
			L13.6,387.8z M13.6,260.6v-9.1L82,248v-14.8h37.8v50.1H82V264L13.6,260.6z M13.6,137.9v-9.1l68.5-3.4v-14.7h37.8v50.1H82v-19.3
			L13.6,137.9z"/>
		<ellipse class="st0" cx="169.4" cy="54.7" rx="16.8" ry="18.1"/>
	</g>
</g>
</svg>
