<?xml version="1.0" encoding="utf-8"?>
<!-- Generator: Adobe Illustrator 21.0.0, SVG Export Plug-In . SVG Version: 6.00 Build 0)  -->
<svg version="1.1" id="Слой_1" xmlns="http://www.w3.org/2000/svg" xmlns:xlink="http://www.w3.org/1999/xlink" x="0px" y="0px"
	 viewBox="0 0 21.2 17.9" style="enable-background:new 0 0 21.2 17.9;" xml:space="preserve">
<style type="text/css">
	.st0{fill:#313B0F;}
</style>
<path id="telegram_7_" class="st0" d="M19.8,0.1l-19,7.2c-1,0.3-1,1.3-0.2,1.6l4.8,1.5L7.1,16c0.2,0.6,0.4,0.8,0.8,0.8
	s0.5-0.1,1-0.5c0.5-0.5,1.2-1.2,2.4-2.3l5,3.7c0.9,0.5,1.6,0.2,1.8-0.8l3.1-15.4C21.4,0.1,20.6-0.2,19.8,0.1z M6,10.1l10.8-6.8
	c0.5-0.4,0.7,0,0.5,0.3l-9,8.1l-0.5,4L6,10.1z"/>
</svg>
