<?xml version="1.0" encoding="utf-8"?>
<!-- Generator: Adobe Illustrator 21.0.0, SVG Export Plug-In . SVG Version: 6.00 Build 0)  -->
<svg version="1.1" id="Слой_1" xmlns="http://www.w3.org/2000/svg" xmlns:xlink="http://www.w3.org/1999/xlink" x="0px" y="0px"
	 viewBox="0 0 25.4 14.5" style="enable-background:new 0 0 25.4 14.5;" xml:space="preserve">
<style type="text/css">
	.st0{fill:#313B0F;}
</style>
<path id="vk_x5F_alt_7_" class="st0" d="M12.5,14.4H14c0,0,0.5-0.1,0.7-0.3s0.2-0.7,0.2-0.7s0-2,0.9-2.3s2.1,2,3.4,2.8
	c1,0.7,1.7,0.5,1.7,0.5h3.4c0,0,1.8-0.1,0.9-1.5c-0.1-0.1-0.5-1-2.5-2.9c-2.1-2-1.8-1.7,0.7-5.1c1.6-2.1,2.2-3.3,2-3.9
	C25.2,0.5,24,0.7,24,0.7h-3.8c0,0-0.3,0-0.5,0.1s-0.3,0.4-0.3,0.4s-0.6,1.6-1.4,3c-1.7,2.9-2.4,3-2.7,2.9c-0.6-0.4-0.5-1.7-0.5-2.6
	c0-2.8,0.4-4-0.8-4.3C13.6,0.1,13.3,0,12.2,0C10.8,0,9.7,0,9,0.3C8.6,0.5,8.3,1,8.5,1c0.3,0,0.8,0.2,1.1,0.6C10,2.1,10,3.3,10,3.3
	S10.2,6.6,9.5,7C9,7.3,8.3,6.7,6.8,4.1C6,2.8,5.4,1.3,5.4,1.3S5.3,1,5.1,0.9C4.8,0.7,4.5,0.6,4.5,0.6H0.9c0,0-0.5,0-0.7,0.3
	c-0.2,0.2,0,0.6,0,0.6s2.8,6.6,6.1,10C9.1,14.6,12.5,14.4,12.5,14.4L12.5,14.4L12.5,14.4z"/>
</svg>
