<svg id="Capa_1" xmlns="http://www.w3.org/2000/svg" viewBox="0 0 61.2 61.2"><style>.st0{fill:#cde389}</style><path class="st0" d="M30.9 26.6c3.9 0 7-3.1 7-7s-3.1-7-7-7-7 3.1-7 7 3.2 7 7 7zm0-12c2.8 0 5 2.2 5 5s-2.2 5-5 5-5-2.2-5-5 2.3-5 5-5z"/><path class="st0" d="M50.2 37.6H43l3-4.4c5.8-7.7 4.9-20.3-1.8-27C40.6 2.6 35.8.6 30.6.6c-5.1 0-9.9 2-13.6 5.6-6.7 6.7-7.5 19.3-1.8 27l3.1 4.4H11l-11 23h61.2l-11-23zM17 32c-5.2-6.9-4.5-18.3 1.6-24.4 3.2-3.2 7.6-5 12.1-5s8.9 1.8 12.1 5c6 6 6.8 17.4 1.6 24.4L30.8 51.8l-9.9-14.2L17 32zm-4.8 7.6h7.6l10.9 15.8 10.9-15.8H49l9 19H3.2l9-19z"/></svg>