<svg id="Слой_1" xmlns="http://www.w3.org/2000/svg" viewBox="0 0 512 512"><style>.st0{fill:#c3e086}</style><path class="st0" d="M342.2 3.3c-2-2.1-4.8-3.3-7.7-3.3H105.7c-29.8.1-53.9 24.1-54 53.9v404.2c.1 29.8 24.3 53.8 54 53.9h300.7c29.8-.1 53.9-24.1 54-53.9V129.2c0-2.8-1.2-5.5-3.2-7.5L342.2 3.3zm3.1 34.1l78.7 80.9h-68c-5.9.1-10.7-4.7-10.7-10.5V37.4zm61 453.1H105.7c-17.9-.1-32.4-14.5-32.5-32.4V53.9c.1-17.9 14.6-32.3 32.5-32.4h218.1v86.2c0 17.8 14.4 32.1 32.2 32.1h82.9v318.3c-.2 17.9-14.7 32.3-32.6 32.4z"/><path class="st0" d="M376.5 410.9H128.9c-5.9 0-10.8 4.8-10.8 10.8 0 5.9 4.8 10.8 10.8 10.8h247.6c5.9 0 10.8-4.8 10.8-10.8-.1-6-4.9-10.8-10.8-10.8zM128.9 374.3h148.2c5.9 0 10.8-4.8 10.8-10.8 0-5.9-4.8-10.8-10.8-10.8H128.9c-5.9 0-10.8 4.8-10.8 10.8 0 6 4.8 10.8 10.8 10.8zM130.4 245.2l15 1.4c1.8 5.7 4.1 11.2 7 16.5l-9.4 11.4c-3.5 4.3-3.2 10.5.7 14.5l21.3 21.3c3.9 3.9 10.2 4.2 14.5.7l11.4-9.5c5.3 2.8 10.8 5.2 16.5 7l1.4 15.1c.5 5.5 5.1 9.8 10.7 9.9h30.2c5.6-.1 10.2-4.3 10.7-9.9l1.4-15c5.7-1.8 11.2-4.1 16.5-7l11.4 9.4c4.3 3.5 10.5 3.2 14.5-.7l21.3-21.3c3.9-3.9 4.2-10.2.7-14.5l-9.5-11.4c2.8-5.3 5.2-10.8 7-16.5l14.9-1.4c5.6-.5 9.8-5.1 9.9-10.7v-30.2c-.1-5.6-4.4-10.2-9.9-10.7l-15-1.4c-1.8-5.7-4.1-11.2-7-16.5l9.4-11.4c3.5-4.3 3.2-10.5-.6-14.4l-21-21.3c-3.9-4-10.2-4.3-14.5-.7l-11.4 9.5c-5.3-2.8-10.8-5.2-16.5-7l-1.4-15.1c-.5-5.5-5.1-9.8-10.7-9.9h-30.2c-5.6.1-10.2 4.3-10.7 9.9l-1.4 15c-5.7 1.8-11.2 4.1-16.5 7l-11.4-9.4c-4.3-3.5-10.5-3.2-14.5.7l-21.3 21.3c-3.9 3.9-4.2 10.2-.7 14.5l9.5 11.4c-2.8 5.3-5.2 10.8-7 16.5l-15.1 1.4c-5.6.5-9.8 5.1-9.9 10.7v30.2c-.1 5.5 4.2 10.1 9.7 10.6zm11.6-31.1l12.9-1.2c4.7-.4 8.6-3.8 9.6-8.4 1.9-8.5 5.4-16.6 10.2-23.9 2.6-3.9 2.3-9.1-.7-12.7l-8-9.7 7.4-7.4 9.7 8c3.7 3 8.9 3.3 12.8.7 7.2-4.8 15.3-8.2 23.8-10 4.6-1.1 8-4.9 8.4-9.6l1.2-12.8H240l1.2 12.8c.4 4.7 3.8 8.5 8.4 9.6 8.5 1.9 16.6 5.4 23.9 10.2 3.9 2.6 9.1 2.3 12.7-.7l9.7-8 7.3 7.4-8.1 9.8c-3 3.7-3.3 8.9-.7 12.8 4.8 7.2 8.2 15.3 10 23.8 1.1 4.6 5 8 9.7 8.4l12.9 1.2v10.7l-12.6 1.2c-4.7.4-8.5 3.8-9.6 8.4-1.9 8.5-5.4 16.6-10.2 23.9-2.6 3.9-2.3 9.1.7 12.7l8 9.7-7.4 7.4-9.7-8c-3.7-3-8.9-3.3-12.8-.7-7.2 4.8-15.3 8.2-23.8 10-4.6 1.1-8 4.9-8.4 9.6l-1.2 12.8h-10.6l-1.2-12.8c-.4-4.7-3.8-8.5-8.4-9.6-8.5-1.9-16.6-5.4-23.9-10.2-3.9-2.5-9.1-2.3-12.7.7l-9.7 8-7.4-7.4 8-9.7c3-3.7 3.3-8.9.7-12.8-4.8-7.2-8.2-15.3-10-23.8-1.1-4.6-5-8-9.7-8.4l-12.9-1.2v-10.8h-.2z"/><path class="st0" d="M234.6 266.3c25.9 0 46.9-21 46.9-46.9s-21-46.9-46.9-46.9-46.9 21-46.9 46.9 21 46.9 46.9 46.9zm0-72.3c14 0 25.4 11.4 25.4 25.4s-11.4 25.4-25.4 25.4-25.4-11.4-25.4-25.4c0-14 11.4-25.4 25.4-25.4z"/></svg>