<svg id="Слой_1" xmlns="http://www.w3.org/2000/svg" viewBox="0 0 18 31.8"><style>.st0{fill:#263013}</style><path class="st0" d="M15.7 0H2.3C1.1 0 0 1 0 2.3v27.1c0 1.3 1 2.3 2.3 2.3h13.3c1.3 0 2.3-1 2.3-2.3V2.3C18 1 17 0 15.7 0zM1.1 4.2H17v20.1H1.1V4.2zm1.2-3.1h13.3c.7 0 1.3.6 1.3 1.3v.8H1.1v-.9c0-.7.5-1.2 1.2-1.2zm13.4 29.6H2.3c-.7 0-1.3-.6-1.3-1.3v-4h15.9v4c0 .7-.5 1.3-1.2 1.3z"/><path class="st0" d="M9 25.9c-1.2 0-2.1.9-2.1 2.1s.9 2.1 2.1 2.1 2.1-.9 2.1-2.1c0-1.1-.9-2.1-2.1-2.1zm0 3.2c-.6 0-1.1-.5-1.1-1.1s.5-1 1.1-1 1.1.5 1.1 1.1-.5 1-1.1 1zM6.9 2.6H9c.3 0 .5-.2.5-.5s-.2-.5-.5-.5H6.9c-.3 0-.5.2-.5.5s.2.5.5.5zM10.6 2.6h.5c.3 0 .5-.2.5-.5s-.2-.5-.5-.5h-.5c-.3 0-.5.2-.5.5s.2.5.5.5z"/></svg>