<svg xmlns="http://www.w3.org/2000/svg" viewBox="0 0 26.95 26.89"><defs><style>.cls-1{fill:#fff}</style></defs><title>Ресурс 1</title><g id="Слой_2" data-name="Слой 2"><path class="cls-1" d="M26.34 21.27l-4.16-4.17a2.17 2.17 0 0 0-3.06.06L17 19.26l-.39-.26a20.86 20.86 0 0 1-5-3.65 21 21 0 0 1-3.65-5.05l-.23-.4L9.1 8.52l.69-.69a2.17 2.17 0 0 0 .06-3.06L5.68.6a2.17 2.17 0 0 0-3.06.06L1.45 1.84a6.78 6.78 0 0 0-1 1.7 7.07 7.07 0 0 0-.36 1.77C-.46 9.86 1.62 14 7.27 19.68c7.81 7.81 14.1 7.22 14.37 7.19a7 7 0 0 0 1.73-.44 6.76 6.76 0 0 0 1.7-1l1.19-1.16a2.17 2.17 0 0 0 .08-3z" id="Capa_1" data-name="Capa 1"/></g></svg>