<svg id="Слой_1" xmlns="http://www.w3.org/2000/svg" viewBox="0 0 25.4 14.5"><style>.st0{fill:#313b0f}</style><path id="vk_x5F_alt_7_" class="st0" d="M12.5 14.4H14s.5-.1.7-.3.2-.7.2-.7 0-2 .9-2.3 2.1 2 3.4 2.8c1 .7 1.7.5 1.7.5h3.4s1.8-.1.9-1.5c-.1-.1-.5-1-2.5-2.9-2.1-2-1.8-1.7.7-5.1 1.6-2.1 2.2-3.3 2-3.9C25.2.5 24 .7 24 .7h-3.8s-.3 0-.5.1-.3.4-.3.4-.6 1.6-1.4 3c-1.7 2.9-2.4 3-2.7 2.9-.6-.4-.5-1.7-.5-2.6 0-2.8.4-4-.8-4.3-.4-.1-.7-.2-1.8-.2-1.4 0-2.5 0-3.2.3-.4.2-.7.7-.5.7.3 0 .8.2 1.1.6.4.5.4 1.7.4 1.7s.2 3.3-.5 3.7c-.5.3-1.2-.3-2.7-2.9C6 2.8 5.4 1.3 5.4 1.3S5.3 1 5.1.9C4.8.7 4.5.6 4.5.6H.9S.4.6.2.9c-.2.2 0 .6 0 .6s2.8 6.6 6.1 10c2.8 3.1 6.2 2.9 6.2 2.9z"/></svg>